<svg width="280" height="258" viewBox="0 0 280 258" fill="none" xmlns="http://www.w3.org/2000/svg">
<g clip-path="url(#clip0_103_370)">
<path d="M136.355 147.702C136.355 147.702 110.592 149.898 86.5366 147.288L86.4629 154.956L141.245 154.191L140.687 149.431C139.363 148.822 137.721 148.09 136.787 147.759L136.355 147.702Z" fill="#111111"/>
<path d="M95.9952 78.582C92.2553 79.3227 88.6488 80.1985 87.0931 81.0391C85.0195 82.1729 78.8302 82.9364 73.2554 96.1065C73.2448 96.1311 93.214 109.972 93.214 109.972L89.1 130.701L133.208 136.412H133.247C133.818 136.468 135.296 136.63 135.296 136.63C136.643 136.835 137.976 137.118 139.291 137.476L137.795 124.721C137.795 124.721 144.381 119.114 144.291 111.572C144.202 104.031 143.94 104.327 143.94 104.327L152.006 96.0784C152.006 96.0784 142.632 84.0386 136.971 80.6653C133.3 79.142 129.537 77.8472 125.706 76.7883L125.567 77.8063L128.866 78.4311C129.354 79.2788 134.929 90.0146 120.438 90.8922C110.981 91.4661 101.257 85.7059 96.4166 79.0489" fill="#111111"/>
<path d="M86.8261 48.9194C50.626 47.4978 43.5815 69.8171 43.5815 86.8344V154.372" stroke="#111111" stroke-width="1.0544" stroke-linecap="round" stroke-linejoin="round"/>
<path d="M183.935 93.4651C180.279 100.485 176.56 118.003 169.25 125.583C166.29 128.647 160.52 130.482 157.242 129.65C153.964 128.818 133.89 112.388 133.89 112.388L148.518 94.0724L161.314 104.954" stroke="#111111" stroke-width="1.0544" stroke-linecap="round" stroke-linejoin="round"/>
<path d="M185.782 84.7178C185.782 84.7178 188.716 87.4259 189.042 89.4987C189.369 91.5714 188.653 95.4291 190.161 96.6524C191.669 97.8757 192.173 95.2623 192.809 93.6512C193.444 92.04 193.081 87.7085 190.912 85.4479" stroke="#111111" stroke-width="1.0544" stroke-linecap="round" stroke-linejoin="round"/>
<path d="M192.52 94.8446C193.081 95.164 194.032 95.3992 194.034 93.3352C194.034 90.4095 194.359 88.0805 192.601 86.5308C191.488 85.5579 190.307 84.6669 189.065 83.8648" stroke="#111111" stroke-width="1.0544" stroke-linecap="round" stroke-linejoin="round"/>
<path d="M183.622 87.3575C183.622 87.3575 187.797 87.0451 188.214 88.8861C188.63 90.7272 188.214 94.2356 189.641 95.2448C191.069 96.254 191.365 93.8776 191.841 92.3928C192.317 90.908 192.257 86.5097 190.177 84.609C188.096 82.7082 186.742 81.8377 186.742 81.8377C186.742 81.8377 180.379 77.1745 174.68 84.6125C168.948 92.0997 157.302 110.921 155.875 113.77" stroke="#111111" stroke-width="1.0544" stroke-linecap="round" stroke-linejoin="round"/>
<path d="M184.285 70.9984L181.859 71.6074L188.882 99.5044L190.394 101.66C190.422 101.699 190.461 101.729 190.506 101.746C190.55 101.763 190.599 101.767 190.646 101.756C190.693 101.746 190.736 101.722 190.769 101.687C190.802 101.652 190.824 101.609 190.833 101.561L191.307 98.8989L184.285 70.9984Z" fill="#6D6D6D"/>
<path d="M180.233 92.5718C180.233 92.5718 184.93 92.3963 185.88 94.176C186.83 95.9556 188.972 96.433 188.496 93.4616C188.02 90.4903 184.809 87.9805 183.443 87.3276" stroke="#111111" stroke-width="1.0544" stroke-linecap="round" stroke-linejoin="round"/>
<path d="M126.666 69.6504L125.557 77.8045L128.856 78.4293C129.344 79.277 134.919 90.0128 120.428 90.8904C110.971 91.4643 101.247 85.7041 96.4062 79.0471L105.888 76.7743L110.592 59.2603" stroke="#111111" stroke-width="1.0544" stroke-linecap="round" stroke-linejoin="round"/>
<path d="M108.328 52.8806C108.328 52.8806 99.6791 53.9494 100.178 45.8287C100.557 39.6683 106.625 40.0369 109.535 40.581" stroke="#111111" stroke-width="1.0544" stroke-linecap="round" stroke-linejoin="round"/>
<path d="M141.684 49.1844C141.4 52.8877 138.153 69.7277 126.282 69.6066C114.411 69.4855 107.723 57.8826 107.797 46.7659C107.87 35.6493 113.859 27.0809 121.381 26.9862C128.903 26.8914 143.742 22.3738 141.684 49.1844Z" stroke="#111111" stroke-width="1.0544" stroke-linecap="round" stroke-linejoin="round"/>
<path d="M106.87 20.7944L110.898 19.3931L108.43 12.3038L104.402 13.705L106.87 20.7944Z" fill="#6D6D6D"/>
<path d="M104.027 15.0182C108.175 15.0182 111.538 11.6567 111.538 7.51001C111.538 3.36332 108.175 0.00177002 104.027 0.00177002C99.8781 0.00177002 96.5151 3.36332 96.5151 7.51001C96.5151 11.6567 99.8781 15.0182 104.027 15.0182Z" fill="#111111"/>
<path d="M110.571 17.0612C117.243 14.9551 124.419 13.9687 130.728 16.4732C149.836 25.11 149.887 39.5157 141.851 46.0762C142.155 35.8721 139.661 30.921 136.151 28.592C132.318 34.7015 119.931 40.0001 108.585 40.1194C108.56 40.2195 108.539 40.323 108.514 40.4248C105.405 40.0369 100.511 40.3177 100.172 45.8287C99.7054 53.4335 107.445 53.007 108.425 52.921C108.557 53.523 110.142 58.9602 110.142 58.9602L108.427 66.7616L83.2146 62.8407C82.8599 62.8326 82.5121 62.7413 82.1992 62.574C81.8864 62.4068 81.6173 62.1683 81.4137 61.8778C81.2101 61.5873 81.0778 61.2531 81.0274 60.9021C80.9769 60.551 81.0098 60.193 81.1234 59.8571C84.1575 50.8324 89.1037 24.1763 110.571 17.0612Z" fill="#111111"/>
<path d="M128.677 60.1502C128.677 60.1502 125.836 61.1839 124.735 57.7668" stroke="#111111" stroke-width="1.0544" stroke-linecap="round" stroke-linejoin="round"/>
<path d="M129.669 54.0653L133.198 54.4935L132.464 40.2932" stroke="#111111" stroke-width="1.0544" stroke-linecap="round" stroke-linejoin="round"/>
<path d="M122.277 39.5858C122.277 39.5858 125.295 37.5745 127.095 39.8631" stroke="#111111" stroke-width="1.0544" stroke-linecap="round" stroke-linejoin="round"/>
<path d="M137.846 41.627C137.846 41.627 140.576 40.5424 141.619 42.6485" stroke="#111111" stroke-width="1.0544" stroke-linecap="round" stroke-linejoin="round"/>
<path d="M126.708 46.9139C126.863 45.9197 126.467 45.0327 125.824 44.9326C125.181 44.8326 124.535 45.5574 124.38 46.5515C124.225 47.5457 124.621 48.4327 125.264 48.5328C125.906 48.6329 126.553 47.9081 126.708 46.9139Z" fill="#111111"/>
<path d="M139.211 49.6431C139.366 48.6489 138.97 47.7619 138.327 47.6618C137.685 47.5618 137.038 48.2866 136.883 49.2807C136.728 50.2749 137.124 51.1619 137.767 51.262C138.41 51.3621 139.056 50.6372 139.211 49.6431Z" fill="#111111"/>
<path d="M128.871 44.1411C129.688 38.758 127.038 33.8923 122.952 33.2733C118.867 32.6543 114.893 36.5163 114.077 41.8994C113.261 47.2824 115.911 52.1481 119.996 52.7672C124.081 53.3862 128.055 49.5242 128.871 44.1411Z" stroke="#6D6D6D" stroke-width="1.0544" stroke-linecap="round" stroke-linejoin="round"/>
<path d="M149.806 47.7426C150.622 42.3595 147.972 37.4938 143.887 36.8748C139.801 36.2558 135.828 40.1178 135.011 45.5009C134.195 50.884 136.845 55.7496 140.93 56.3687C145.016 56.9877 148.989 53.1257 149.806 47.7426Z" stroke="#6D6D6D" stroke-width="1.0544" stroke-linecap="round" stroke-linejoin="round"/>
<path d="M134.947 44.028L129.075 43.1206" stroke="#6D6D6D" stroke-width="1.0544" stroke-linecap="round" stroke-linejoin="round"/>
<path d="M114.117 39.9615L107.101 40.4096" stroke="#6D6D6D" stroke-width="1.0544" stroke-linecap="round" stroke-linejoin="round"/>
<path d="M199.051 153.935L191.399 153.961L177.911 124.195L184.442 121.494L199.051 153.935Z" fill="#6D6D6D"/>
<path d="M215.678 91.3239L214.695 90.1129C214.372 89.7157 213.905 89.463 213.395 89.4104C212.886 89.3577 212.376 89.5094 211.979 89.8321L185.382 111.42L148.156 141.46L153.311 145.742L153.838 147.453C153.838 147.453 152.503 147.453 152.581 149.28C152.658 151.107 151.933 150.081 154.698 153.191C155.804 152.355 169.108 141.468 182.792 130.245C197.873 118.199 213.782 105.473 214.923 104.482C216.637 102.997 216.855 101.18 217.382 98.9497C217.703 97.6333 217.717 96.2604 217.421 94.9379C217.126 93.6153 216.53 92.3786 215.678 91.3239Z" fill="#6D6D6D"/>
<path d="M216.428 95.2307L153.362 146.082" stroke="#111111" stroke-width="1.0544" stroke-linecap="round" stroke-linejoin="round"/>
<path d="M186.757 127.089L181.426 131.542" stroke="#111111" stroke-width="1.0544" stroke-linecap="round" stroke-linejoin="round"/>
<path d="M230.199 153.654C230.199 142.858 228.755 132.886 225.907 124.016C223.611 116.86 220.403 110.402 216.37 104.817C211.078 97.486 205.756 93.5844 203.377 92.0733V41.4533C203.377 41.1556 203.318 40.8607 203.205 40.5856C203.091 40.3105 202.924 40.0605 202.713 39.85C202.503 39.6394 202.253 39.4723 201.978 39.3583C201.703 39.2444 201.408 39.1857 201.11 39.1857H199.566C199.268 39.1855 198.973 39.244 198.698 39.3578C198.423 39.4717 198.172 39.6387 197.962 39.8493C197.751 40.0599 197.584 40.31 197.47 40.5852C197.356 40.8604 197.298 41.1554 197.298 41.4533V124.848C197.298 125.146 197.356 125.441 197.47 125.716C197.584 125.991 197.751 126.241 197.962 126.452C198.172 126.662 198.423 126.829 198.698 126.943C198.973 127.057 199.268 127.116 199.566 127.115H201.11C201.408 127.115 201.703 127.057 201.978 126.943C202.253 126.829 202.503 126.662 202.713 126.451C202.924 126.24 203.091 125.99 203.205 125.715C203.318 125.44 203.377 125.145 203.377 124.848V98.6812C205.705 100.564 208.846 103.557 212.019 107.952C217.565 115.632 224.122 129.079 224.78 150.161H212.73C212.128 150.162 211.55 150.401 211.124 150.827C210.699 151.253 210.46 151.83 210.46 152.432V154.954H230.162V153.654H230.199Z" fill="#111111"/>
<path d="M145.614 149.533C145.508 149.399 145.391 149.263 145.262 149.128C145.306 149.186 145.35 149.244 145.39 149.303L145.614 149.533Z" fill="#111111"/>
<path d="M140.243 145.6V145.523C139.979 145.358 139.691 145.232 139.391 145.149C139.391 145.149 139.721 145.321 140.243 145.6Z" fill="#111111"/>
<path d="M153.673 146.806C153.595 145.775 150.064 143.036 147.327 141.014C142.739 137.639 135.294 136.626 135.294 136.626C135.294 136.626 133.816 136.465 133.245 136.408H133.207L89.0999 130.701L93.2103 109.966L73.7205 96.4417C67.691 109.55 66.2319 131.787 68.4969 139.404C69.4152 142.49 72.8092 145.196 75.9767 145.777C102.332 150.602 136.355 147.708 136.355 147.708L136.792 147.764C138.539 148.383 142.753 150.396 142.753 150.396C146.56 152.102 146.242 150.156 144.995 148.803C145.216 149.015 145.423 149.242 145.613 149.482C146.881 150.64 148.867 150.184 149.178 149.754C149.488 149.324 148.091 148.059 146.245 146.053L146.467 146.216C149.52 149.737 153.162 150.77 152.651 148.497C152.614 148.322 152.299 147.911 151.81 147.336C152.856 147.657 153.739 147.685 153.673 146.806Z" stroke="#111111" stroke-width="1.0544" stroke-linecap="round" stroke-linejoin="round"/>
<path d="M145.613 149.533C143.979 147.427 139.382 145.145 139.382 145.145C139.909 145.196 143.041 147.143 144.597 148.466" fill="white"/>
<path d="M145.613 149.533C143.979 147.427 139.382 145.145 139.382 145.145C139.909 145.196 143.041 147.143 144.597 148.466" stroke="#111111" stroke-width="1.0544" stroke-linecap="round" stroke-linejoin="round"/>
<path d="M140.841 142.035C140.841 142.035 144.337 144.022 146.203 146.056L140.841 142.035Z" fill="white"/>
<path d="M140.841 142.035C140.841 142.035 144.337 144.022 146.203 146.056" stroke="#111111" stroke-width="1.0544" stroke-linecap="round" stroke-linejoin="round"/>
<path d="M152.651 148.531C152.459 147.676 145.181 140.282 142.525 138.99C140.472 137.997 137.413 136.919 133.208 136.444" stroke="#111111" stroke-width="1.0544" stroke-linecap="round" stroke-linejoin="round"/>
<path d="M176.277 149.698H115.755C114.689 149.698 113.824 150.562 113.824 151.629V153.024C113.824 154.09 114.689 154.954 115.755 154.954H176.277C177.344 154.954 178.209 154.09 178.209 153.024V151.629C178.209 150.562 177.344 149.698 176.277 149.698Z" fill="#6D6D6D"/>
<path d="M19.5269 154.473H260.473" stroke="#111111" stroke-width="1.0544" stroke-linecap="round" stroke-linejoin="round"/>
</g>
<path d="M107.734 193.812C107.618 193.812 107.513 193.771 107.422 193.687C107.33 193.596 107.276 193.475 107.259 193.325L107.059 190.837C107.034 190.629 107.088 190.454 107.222 190.312C107.355 190.171 107.526 190.1 107.734 190.1C107.868 190.1 107.988 190.133 108.097 190.2C108.205 190.258 108.284 190.346 108.334 190.462C108.393 190.571 108.413 190.696 108.397 190.837L108.197 193.325C108.188 193.475 108.138 193.596 108.047 193.687C107.963 193.771 107.859 193.812 107.734 193.812ZM110.059 193.812C109.943 193.812 109.838 193.771 109.747 193.687C109.655 193.596 109.601 193.475 109.584 193.325L109.384 190.837C109.359 190.629 109.413 190.454 109.547 190.312C109.68 190.171 109.851 190.1 110.059 190.1C110.193 190.1 110.313 190.133 110.422 190.2C110.53 190.258 110.609 190.346 110.659 190.462C110.718 190.571 110.738 190.696 110.722 190.837L110.522 193.325C110.513 193.475 110.463 193.596 110.372 193.687C110.288 193.771 110.184 193.812 110.059 193.812ZM116.43 199.088C116.238 199.088 116.088 199.033 115.98 198.925C115.872 198.817 115.817 198.662 115.817 198.462V190.75C115.817 190.542 115.867 190.383 115.967 190.275C116.076 190.158 116.217 190.1 116.392 190.1C116.542 190.1 116.655 190.129 116.73 190.187C116.813 190.237 116.909 190.333 117.017 190.475L122.167 197.262H121.855V190.712C121.855 190.521 121.905 190.371 122.005 190.262C122.113 190.154 122.263 190.1 122.455 190.1C122.655 190.1 122.805 190.154 122.905 190.262C123.005 190.371 123.055 190.521 123.055 190.712V198.475C123.055 198.667 123.005 198.817 122.905 198.925C122.813 199.033 122.688 199.088 122.53 199.088C122.38 199.088 122.255 199.058 122.155 199C122.063 198.942 121.963 198.842 121.855 198.7L116.73 191.925H117.017V198.462C117.017 198.662 116.967 198.817 116.867 198.925C116.767 199.033 116.622 199.088 116.43 199.088ZM127.62 199.113C127.003 199.113 126.47 198.983 126.02 198.725C125.578 198.467 125.232 198.1 124.982 197.625C124.732 197.15 124.607 196.592 124.607 195.95C124.607 195.458 124.678 195.021 124.82 194.637C124.961 194.254 125.161 193.925 125.42 193.65C125.686 193.367 126.003 193.154 126.37 193.012C126.745 192.862 127.161 192.787 127.62 192.787C128.228 192.787 128.753 192.917 129.195 193.175C129.645 193.433 129.995 193.8 130.245 194.275C130.495 194.742 130.62 195.3 130.62 195.95C130.62 196.433 130.549 196.871 130.407 197.262C130.265 197.654 130.061 197.987 129.795 198.262C129.536 198.537 129.22 198.75 128.845 198.9C128.478 199.042 128.07 199.113 127.62 199.113ZM127.62 198.137C127.961 198.137 128.261 198.054 128.52 197.887C128.778 197.721 128.978 197.475 129.12 197.15C129.27 196.825 129.345 196.425 129.345 195.95C129.345 195.233 129.186 194.692 128.87 194.325C128.553 193.958 128.136 193.775 127.62 193.775C127.27 193.775 126.965 193.858 126.707 194.025C126.449 194.183 126.245 194.425 126.095 194.75C125.953 195.075 125.882 195.475 125.882 195.95C125.882 196.658 126.04 197.2 126.357 197.575C126.674 197.95 127.095 198.137 127.62 198.137ZM138.271 199.088C138.062 199.088 137.9 199.029 137.783 198.912C137.675 198.796 137.621 198.633 137.621 198.425V191.275H134.971C134.796 191.275 134.658 191.229 134.558 191.137C134.458 191.037 134.408 190.9 134.408 190.725C134.408 190.55 134.458 190.417 134.558 190.325C134.658 190.233 134.796 190.187 134.971 190.187H141.558C141.742 190.187 141.883 190.233 141.983 190.325C142.083 190.417 142.133 190.55 142.133 190.725C142.133 190.9 142.083 191.037 141.983 191.137C141.883 191.229 141.742 191.275 141.558 191.275H138.908V198.425C138.908 198.633 138.854 198.796 138.746 198.912C138.646 199.029 138.487 199.088 138.271 199.088ZM143.961 199.113C143.536 199.113 143.152 199.029 142.811 198.862C142.477 198.696 142.215 198.471 142.023 198.187C141.831 197.904 141.736 197.583 141.736 197.225C141.736 196.775 141.848 196.421 142.073 196.162C142.306 195.896 142.686 195.708 143.211 195.6C143.744 195.483 144.461 195.425 145.361 195.425H145.948V196.2H145.373C144.773 196.2 144.298 196.229 143.948 196.287C143.598 196.346 143.348 196.446 143.198 196.587C143.056 196.721 142.986 196.908 142.986 197.15C142.986 197.467 143.094 197.725 143.311 197.925C143.527 198.117 143.827 198.212 144.211 198.212C144.519 198.212 144.79 198.142 145.023 198C145.256 197.85 145.44 197.65 145.573 197.4C145.715 197.15 145.786 196.862 145.786 196.537V195.1C145.786 194.625 145.686 194.283 145.486 194.075C145.286 193.867 144.956 193.762 144.498 193.762C144.231 193.762 143.952 193.796 143.661 193.862C143.377 193.929 143.081 194.042 142.773 194.2C142.631 194.267 142.511 194.287 142.411 194.262C142.311 194.237 142.231 194.183 142.173 194.1C142.115 194.008 142.081 193.912 142.073 193.812C142.073 193.704 142.098 193.6 142.148 193.5C142.206 193.4 142.302 193.325 142.436 193.275C142.802 193.1 143.165 192.975 143.523 192.9C143.881 192.825 144.219 192.787 144.536 192.787C145.094 192.787 145.552 192.875 145.911 193.05C146.277 193.225 146.548 193.492 146.723 193.85C146.898 194.208 146.986 194.671 146.986 195.237V198.45C146.986 198.65 146.936 198.808 146.836 198.925C146.736 199.033 146.59 199.088 146.398 199.088C146.215 199.088 146.069 199.033 145.961 198.925C145.852 198.808 145.798 198.65 145.798 198.45V197.637H145.911C145.844 197.946 145.719 198.212 145.536 198.437C145.361 198.654 145.14 198.821 144.873 198.937C144.606 199.054 144.302 199.113 143.961 199.113ZM150.862 199.113C150.495 199.113 150.116 199.071 149.724 198.987C149.341 198.904 148.987 198.762 148.662 198.562C148.554 198.487 148.479 198.404 148.437 198.312C148.395 198.221 148.379 198.129 148.387 198.037C148.404 197.937 148.441 197.854 148.499 197.787C148.566 197.712 148.645 197.667 148.737 197.65C148.837 197.633 148.941 197.654 149.049 197.712C149.374 197.896 149.687 198.025 149.987 198.1C150.287 198.167 150.583 198.2 150.874 198.2C151.316 198.2 151.649 198.121 151.874 197.962C152.099 197.804 152.212 197.592 152.212 197.325C152.212 197.108 152.137 196.942 151.987 196.825C151.837 196.7 151.612 196.604 151.312 196.537L150.124 196.3C149.608 196.192 149.216 196 148.949 195.725C148.683 195.45 148.549 195.1 148.549 194.675C148.549 194.292 148.654 193.958 148.862 193.675C149.07 193.392 149.362 193.175 149.737 193.025C150.112 192.867 150.545 192.787 151.037 192.787C151.404 192.787 151.749 192.833 152.074 192.925C152.399 193.017 152.699 193.154 152.974 193.337C153.083 193.396 153.154 193.475 153.187 193.575C153.22 193.667 153.224 193.758 153.199 193.85C153.183 193.942 153.141 194.025 153.074 194.1C153.008 194.167 152.924 194.208 152.824 194.225C152.733 194.233 152.629 194.208 152.512 194.15C152.262 193.992 152.012 193.879 151.762 193.812C151.52 193.746 151.279 193.712 151.037 193.712C150.595 193.712 150.262 193.796 150.037 193.962C149.82 194.121 149.712 194.337 149.712 194.612C149.712 194.821 149.779 194.992 149.912 195.125C150.045 195.258 150.254 195.354 150.537 195.412L151.724 195.65C152.266 195.758 152.674 195.942 152.949 196.2C153.233 196.458 153.374 196.808 153.374 197.25C153.374 197.825 153.145 198.279 152.687 198.612C152.229 198.946 151.62 199.113 150.862 199.113ZM155.404 199.088C155.204 199.088 155.05 199.033 154.942 198.925C154.833 198.808 154.779 198.65 154.779 198.45V190.737C154.779 190.529 154.833 190.371 154.942 190.262C155.05 190.154 155.204 190.1 155.404 190.1C155.604 190.1 155.758 190.154 155.867 190.262C155.983 190.371 156.042 190.529 156.042 190.737V195.562H156.067L158.404 193.237C158.537 193.104 158.658 193 158.767 192.925C158.875 192.85 159.017 192.812 159.192 192.812C159.367 192.812 159.5 192.858 159.592 192.95C159.683 193.042 159.729 193.154 159.729 193.287C159.729 193.412 159.667 193.542 159.542 193.675L157.067 196.125V195.537L159.767 198.225C159.9 198.358 159.962 198.492 159.954 198.625C159.946 198.758 159.892 198.871 159.792 198.962C159.692 199.046 159.567 199.088 159.417 199.088C159.225 199.088 159.071 199.05 158.954 198.975C158.846 198.9 158.717 198.787 158.567 198.637L156.067 196.212H156.042V198.45C156.042 198.875 155.829 199.088 155.404 199.088ZM163.252 199.113C162.885 199.113 162.506 199.071 162.115 198.987C161.731 198.904 161.377 198.762 161.052 198.562C160.944 198.487 160.869 198.404 160.827 198.312C160.785 198.221 160.769 198.129 160.777 198.037C160.794 197.937 160.831 197.854 160.89 197.787C160.956 197.712 161.035 197.667 161.127 197.65C161.227 197.633 161.331 197.654 161.44 197.712C161.765 197.896 162.077 198.025 162.377 198.1C162.677 198.167 162.973 198.2 163.265 198.2C163.706 198.2 164.04 198.121 164.265 197.962C164.49 197.804 164.602 197.592 164.602 197.325C164.602 197.108 164.527 196.942 164.377 196.825C164.227 196.7 164.002 196.604 163.702 196.537L162.515 196.3C161.998 196.192 161.606 196 161.34 195.725C161.073 195.45 160.94 195.1 160.94 194.675C160.94 194.292 161.044 193.958 161.252 193.675C161.46 193.392 161.752 193.175 162.127 193.025C162.502 192.867 162.935 192.787 163.427 192.787C163.794 192.787 164.14 192.833 164.465 192.925C164.79 193.017 165.09 193.154 165.365 193.337C165.473 193.396 165.544 193.475 165.577 193.575C165.61 193.667 165.615 193.758 165.59 193.85C165.573 193.942 165.531 194.025 165.465 194.1C165.398 194.167 165.315 194.208 165.215 194.225C165.123 194.233 165.019 194.208 164.902 194.15C164.652 193.992 164.402 193.879 164.152 193.812C163.91 193.746 163.669 193.712 163.427 193.712C162.985 193.712 162.652 193.796 162.427 193.962C162.21 194.121 162.102 194.337 162.102 194.612C162.102 194.821 162.169 194.992 162.302 195.125C162.435 195.258 162.644 195.354 162.927 195.412L164.115 195.65C164.656 195.758 165.065 195.942 165.34 196.2C165.623 196.458 165.765 196.808 165.765 197.25C165.765 197.825 165.535 198.279 165.077 198.612C164.619 198.946 164.01 199.113 163.252 199.113ZM167.721 199.05C167.479 199.05 167.283 198.975 167.133 198.825C166.983 198.675 166.908 198.483 166.908 198.25C166.908 198.017 166.983 197.829 167.133 197.687C167.283 197.537 167.479 197.462 167.721 197.462C167.962 197.462 168.154 197.537 168.296 197.687C168.437 197.829 168.508 198.017 168.508 198.25C168.508 198.483 168.437 198.675 168.296 198.825C168.154 198.975 167.962 199.05 167.721 199.05ZM170.153 192.925C170.061 193.042 169.961 193.108 169.853 193.125C169.753 193.142 169.666 193.125 169.591 193.075C169.516 193.017 169.474 192.937 169.466 192.837C169.457 192.729 169.503 192.612 169.603 192.487C169.753 192.296 169.853 192.104 169.903 191.912C169.961 191.721 169.991 191.55 169.991 191.4L170.041 191.725C169.791 191.725 169.586 191.654 169.428 191.512C169.278 191.362 169.203 191.167 169.203 190.925C169.203 190.692 169.274 190.504 169.416 190.362C169.557 190.212 169.749 190.137 169.991 190.137C170.241 190.137 170.436 190.221 170.578 190.387C170.728 190.554 170.803 190.796 170.803 191.112C170.803 191.296 170.782 191.487 170.741 191.687C170.707 191.887 170.645 192.092 170.553 192.3C170.461 192.508 170.328 192.717 170.153 192.925ZM172.391 192.925C172.299 193.042 172.199 193.108 172.091 193.125C171.991 193.142 171.903 193.125 171.828 193.075C171.753 193.017 171.711 192.937 171.703 192.837C171.695 192.729 171.741 192.612 171.841 192.487C171.991 192.296 172.091 192.104 172.141 191.912C172.199 191.721 172.228 191.55 172.228 191.4L172.278 191.725C172.028 191.725 171.824 191.654 171.666 191.512C171.516 191.362 171.441 191.167 171.441 190.925C171.441 190.692 171.511 190.504 171.653 190.362C171.795 190.212 171.986 190.137 172.228 190.137C172.478 190.137 172.674 190.221 172.816 190.387C172.966 190.554 173.041 190.796 173.041 191.112C173.041 191.296 173.02 191.487 172.978 191.687C172.945 191.887 172.882 192.092 172.791 192.3C172.699 192.508 172.566 192.717 172.391 192.925Z" fill="#2B2F33"/>
<path d="M10.9735 235.088C10.8069 235.088 10.6777 235.042 10.586 234.95C10.5027 234.85 10.461 234.712 10.461 234.537V230.437L10.686 231.15L7.54854 226.825C7.47354 226.717 7.43604 226.608 7.43604 226.5C7.44437 226.383 7.4902 226.287 7.57354 226.212C7.65687 226.137 7.7652 226.1 7.89854 226.1C8.0152 226.1 8.11937 226.129 8.21104 226.187C8.3027 226.237 8.38604 226.321 8.46104 226.437L11.1235 230.112H10.861L13.5235 226.437C13.6152 226.312 13.7027 226.225 13.786 226.175C13.8694 226.125 13.9694 226.1 14.086 226.1C14.2194 226.1 14.3235 226.137 14.3985 226.212C14.4735 226.279 14.511 226.371 14.511 226.487C14.5194 226.596 14.4819 226.712 14.3985 226.837L11.2735 231.15L11.486 230.437V234.537C11.486 234.904 11.3152 235.088 10.9735 235.088ZM17.1811 235.113C16.5894 235.113 16.0769 234.983 15.6436 234.725C15.2102 234.467 14.8727 234.104 14.6311 233.637C14.3977 233.162 14.2811 232.604 14.2811 231.962C14.2811 231.479 14.3477 231.046 14.4811 230.662C14.6144 230.271 14.8102 229.937 15.0686 229.662C15.3269 229.387 15.6311 229.179 15.9811 229.037C16.3394 228.887 16.7394 228.812 17.1811 228.812C17.7727 228.812 18.2852 228.942 18.7186 229.2C19.1519 229.458 19.4852 229.825 19.7186 230.3C19.9602 230.767 20.0811 231.321 20.0811 231.962C20.0811 232.446 20.0144 232.879 19.8811 233.262C19.7477 233.646 19.5519 233.979 19.2936 234.262C19.0352 234.537 18.7269 234.75 18.3686 234.9C18.0186 235.042 17.6227 235.113 17.1811 235.113ZM17.1811 234.3C17.5561 234.3 17.8852 234.208 18.1686 234.025C18.4519 233.842 18.6686 233.575 18.8186 233.225C18.9769 232.875 19.0561 232.454 19.0561 231.962C19.0561 231.204 18.8852 230.625 18.5436 230.225C18.2102 229.825 17.7561 229.625 17.1811 229.625C16.7977 229.625 16.4644 229.717 16.1811 229.9C15.9061 230.075 15.6894 230.337 15.5311 230.687C15.3811 231.029 15.3061 231.454 15.3061 231.962C15.3061 232.712 15.4769 233.292 15.8186 233.7C16.1602 234.1 16.6144 234.3 17.1811 234.3ZM23.7519 235.113C23.2602 235.113 22.8519 235.025 22.5269 234.85C22.2102 234.667 21.9685 234.396 21.8019 234.037C21.6435 233.679 21.5644 233.233 21.5644 232.7V229.35C21.5644 229.175 21.606 229.046 21.6894 228.962C21.781 228.879 21.906 228.837 22.0644 228.837C22.231 228.837 22.356 228.879 22.4394 228.962C22.531 229.046 22.5769 229.175 22.5769 229.35V232.687C22.5769 233.221 22.6852 233.621 22.9019 233.887C23.1269 234.146 23.4769 234.275 23.9519 234.275C24.4685 234.275 24.8894 234.1 25.2144 233.75C25.5394 233.4 25.7019 232.942 25.7019 232.375V229.35C25.7019 229.175 25.7435 229.046 25.8269 228.962C25.9185 228.879 26.0477 228.837 26.2144 228.837C26.3727 228.837 26.4935 228.879 26.5769 228.962C26.6685 229.046 26.7144 229.175 26.7144 229.35V234.562C26.7144 234.913 26.5519 235.088 26.2269 235.088C26.0685 235.088 25.9435 235.042 25.8519 234.95C25.7685 234.858 25.7269 234.729 25.7269 234.562V233.425L25.8894 233.6C25.7227 234.092 25.4477 234.467 25.0644 234.725C24.6894 234.983 24.2519 235.113 23.7519 235.113ZM32.3313 235.088C32.1647 235.088 32.0397 235.042 31.9563 234.95C31.873 234.858 31.8313 234.729 31.8313 234.562V226.612C31.8313 226.446 31.873 226.321 31.9563 226.237C32.0397 226.146 32.1647 226.1 32.3313 226.1C32.4897 226.1 32.6147 226.146 32.7063 226.237C32.798 226.321 32.8438 226.446 32.8438 226.612V230.275H32.6813C32.8563 229.792 33.1397 229.429 33.5313 229.187C33.9313 228.937 34.3897 228.812 34.9063 228.812C35.3897 228.812 35.7897 228.9 36.1063 229.075C36.4313 229.25 36.673 229.517 36.8313 229.875C36.9897 230.225 37.0688 230.671 37.0688 231.212V234.562C37.0688 234.729 37.023 234.858 36.9313 234.95C36.848 235.042 36.7272 235.088 36.5688 235.088C36.4022 235.088 36.273 235.042 36.1813 234.95C36.098 234.858 36.0563 234.729 36.0563 234.562V231.275C36.0563 230.708 35.9438 230.296 35.7188 230.037C35.5022 229.771 35.1522 229.637 34.6688 229.637C34.1105 229.637 33.6647 229.812 33.3313 230.162C33.0063 230.504 32.8438 230.962 32.8438 231.537V234.562C32.8438 234.913 32.673 235.088 32.3313 235.088ZM40.8483 235.113C40.4317 235.113 40.0567 235.033 39.7233 234.875C39.3983 234.708 39.14 234.483 38.9483 234.2C38.7567 233.917 38.6608 233.6 38.6608 233.25C38.6608 232.8 38.7733 232.446 38.9983 232.187C39.2317 231.929 39.6108 231.746 40.1358 231.637C40.6692 231.529 41.3942 231.475 42.3108 231.475H42.8733V232.137H42.3233C41.6483 232.137 41.115 232.171 40.7233 232.237C40.34 232.296 40.0692 232.4 39.9108 232.55C39.7608 232.7 39.6858 232.912 39.6858 233.187C39.6858 233.529 39.8025 233.808 40.0358 234.025C40.2775 234.242 40.6025 234.35 41.0108 234.35C41.3442 234.35 41.6358 234.271 41.8858 234.112C42.1442 233.954 42.3442 233.737 42.4858 233.462C42.6358 233.187 42.7108 232.871 42.7108 232.512V231.087C42.7108 230.571 42.6067 230.2 42.3983 229.975C42.19 229.742 41.8483 229.625 41.3733 229.625C41.0817 229.625 40.79 229.662 40.4983 229.737C40.2067 229.812 39.8983 229.933 39.5733 230.1C39.4567 230.158 39.3567 230.179 39.2733 230.162C39.19 230.137 39.1233 230.092 39.0733 230.025C39.0233 229.958 38.9942 229.883 38.9858 229.8C38.9775 229.708 38.9942 229.621 39.0358 229.537C39.0858 229.454 39.1608 229.387 39.2608 229.337C39.6275 229.154 39.99 229.021 40.3483 228.937C40.7067 228.854 41.0483 228.812 41.3733 228.812C41.8983 228.812 42.3317 228.9 42.6733 229.075C43.015 229.242 43.2692 229.5 43.4358 229.85C43.6025 230.192 43.6858 230.633 43.6858 231.175V234.562C43.6858 234.729 43.6442 234.858 43.5608 234.95C43.4858 235.042 43.3733 235.088 43.2233 235.088C43.065 235.088 42.9442 235.042 42.8608 234.95C42.7775 234.858 42.7358 234.729 42.7358 234.562V233.587H42.8483C42.7817 233.904 42.6525 234.175 42.4608 234.4C42.2775 234.625 42.0483 234.8 41.7733 234.925C41.4983 235.05 41.19 235.113 40.8483 235.113ZM47.7657 235.088C47.6241 235.088 47.4991 235.05 47.3907 234.975C47.2824 234.892 47.1907 234.767 47.1157 234.6L44.9532 229.55C44.8949 229.425 44.8741 229.308 44.8907 229.2C44.9074 229.092 44.9574 229.004 45.0407 228.937C45.1241 228.871 45.2407 228.837 45.3907 228.837C45.5241 228.837 45.6282 228.867 45.7032 228.925C45.7782 228.983 45.8449 229.087 45.9032 229.237L47.9532 234.25H47.6157L49.7032 229.237C49.7616 229.087 49.8282 228.983 49.9032 228.925C49.9782 228.867 50.0866 228.837 50.2282 228.837C50.3616 228.837 50.4616 228.871 50.5282 228.937C50.6032 229.004 50.6449 229.092 50.6532 229.2C50.6699 229.3 50.6532 229.412 50.6032 229.537L48.4157 234.6C48.3574 234.767 48.2699 234.892 48.1532 234.975C48.0449 235.05 47.9157 235.088 47.7657 235.088ZM54.5884 235.113C53.9467 235.113 53.3925 234.987 52.9259 234.737C52.4675 234.479 52.1092 234.117 51.8509 233.65C51.6009 233.183 51.4759 232.625 51.4759 231.975C51.4759 231.342 51.6009 230.792 51.8509 230.325C52.1009 229.85 52.4425 229.479 52.8759 229.212C53.3175 228.946 53.8259 228.812 54.4009 228.812C54.8092 228.812 55.1759 228.883 55.5009 229.025C55.8259 229.158 56.1009 229.354 56.3259 229.612C56.5592 229.871 56.7342 230.183 56.8509 230.55C56.9759 230.917 57.0384 231.329 57.0384 231.788C57.0384 231.921 57.0009 232.021 56.9259 232.087C56.8509 232.146 56.7425 232.175 56.6009 232.175H52.2509V231.512H56.3634L56.1634 231.675C56.1634 231.225 56.0967 230.846 55.9634 230.537C55.83 230.221 55.6342 229.979 55.3759 229.812C55.1259 229.646 54.8092 229.562 54.4259 229.562C54.0009 229.562 53.6384 229.662 53.3384 229.862C53.0467 230.054 52.8259 230.325 52.6759 230.675C52.5259 231.017 52.4509 231.417 52.4509 231.875V231.95C52.4509 232.717 52.6342 233.3 53.0009 233.7C53.3759 234.1 53.905 234.3 54.5884 234.3C54.8717 234.3 55.1509 234.262 55.4259 234.187C55.7092 234.112 55.9842 233.987 56.2509 233.812C56.3675 233.737 56.4717 233.704 56.5634 233.712C56.6634 233.712 56.7425 233.742 56.8009 233.8C56.8592 233.85 56.8967 233.917 56.9134 234C56.9384 234.075 56.93 234.158 56.8884 234.25C56.855 234.342 56.7842 234.421 56.6759 234.487C56.4009 234.687 56.0759 234.842 55.7009 234.95C55.3259 235.058 54.955 235.113 54.5884 235.113ZM62.2264 235.088C62.0597 235.088 61.9347 235.042 61.8514 234.95C61.768 234.858 61.7264 234.729 61.7264 234.562V229.35C61.7264 229.183 61.768 229.058 61.8514 228.975C61.9347 228.883 62.0555 228.837 62.2139 228.837C62.3722 228.837 62.493 228.883 62.5764 228.975C62.668 229.058 62.7139 229.183 62.7139 229.35V230.425L62.5764 230.275C62.7514 229.792 63.0347 229.429 63.4264 229.187C63.8264 228.937 64.2847 228.812 64.8014 228.812C65.2847 228.812 65.6847 228.9 66.0014 229.075C66.3264 229.25 66.568 229.517 66.7264 229.875C66.8847 230.225 66.9639 230.671 66.9639 231.212V234.562C66.9639 234.729 66.918 234.858 66.8264 234.95C66.743 235.042 66.6222 235.088 66.4639 235.088C66.2972 235.088 66.168 235.042 66.0764 234.95C65.993 234.858 65.9514 234.729 65.9514 234.562V231.275C65.9514 230.708 65.8389 230.296 65.6139 230.037C65.3972 229.771 65.0472 229.637 64.5639 229.637C64.0055 229.637 63.5597 229.812 63.2264 230.162C62.9014 230.504 62.7389 230.962 62.7389 231.537V234.562C62.7389 234.913 62.568 235.088 62.2264 235.088ZM71.3559 235.113C70.7642 235.113 70.2517 234.983 69.8184 234.725C69.385 234.467 69.0475 234.104 68.8059 233.637C68.5725 233.162 68.4559 232.604 68.4559 231.962C68.4559 231.479 68.5225 231.046 68.6559 230.662C68.7892 230.271 68.985 229.937 69.2434 229.662C69.5017 229.387 69.8059 229.179 70.1559 229.037C70.5142 228.887 70.9142 228.812 71.3559 228.812C71.9475 228.812 72.46 228.942 72.8934 229.2C73.3267 229.458 73.66 229.825 73.8934 230.3C74.135 230.767 74.2559 231.321 74.2559 231.962C74.2559 232.446 74.1892 232.879 74.0559 233.262C73.9225 233.646 73.7267 233.979 73.4684 234.262C73.21 234.537 72.9017 234.75 72.5434 234.9C72.1934 235.042 71.7975 235.113 71.3559 235.113ZM71.3559 234.3C71.7309 234.3 72.06 234.208 72.3434 234.025C72.6267 233.842 72.8434 233.575 72.9934 233.225C73.1517 232.875 73.2309 232.454 73.2309 231.962C73.2309 231.204 73.06 230.625 72.7184 230.225C72.385 229.825 71.9309 229.625 71.3559 229.625C70.9725 229.625 70.6392 229.717 70.3559 229.9C70.0809 230.075 69.8642 230.337 69.7059 230.687C69.5559 231.029 69.4809 231.454 69.4809 231.962C69.4809 232.712 69.6517 233.292 69.9934 233.7C70.335 234.1 70.7892 234.3 71.3559 234.3ZM81.4368 235.113C80.9618 235.113 80.5618 235.029 80.2368 234.862C79.9201 234.687 79.6826 234.437 79.5243 234.112C79.366 233.779 79.2868 233.375 79.2868 232.9V229.712H78.4493C78.3076 229.712 78.1993 229.679 78.1243 229.612C78.0493 229.537 78.0118 229.437 78.0118 229.312C78.0118 229.187 78.0493 229.092 78.1243 229.025C78.1993 228.958 78.3076 228.925 78.4493 228.925H79.2868V227.487C79.2868 227.321 79.3326 227.196 79.4243 227.112C79.516 227.021 79.641 226.975 79.7993 226.975C79.9576 226.975 80.0785 227.021 80.1618 227.112C80.2535 227.196 80.2993 227.321 80.2993 227.487V228.925H81.8743C82.016 228.925 82.1243 228.958 82.1993 229.025C82.2743 229.092 82.3118 229.187 82.3118 229.312C82.3118 229.437 82.2743 229.537 82.1993 229.612C82.1243 229.679 82.016 229.712 81.8743 229.712H80.2993V232.8C80.2993 233.275 80.3993 233.637 80.5993 233.887C80.7993 234.129 81.1243 234.25 81.5743 234.25C81.7327 234.25 81.866 234.233 81.9743 234.2C82.091 234.167 82.1868 234.15 82.2618 234.15C82.3368 234.142 82.3993 234.167 82.4493 234.225C82.4993 234.283 82.5243 234.383 82.5243 234.525C82.5243 234.625 82.5035 234.717 82.4618 234.8C82.4285 234.883 82.366 234.942 82.2743 234.975C82.1743 235.008 82.041 235.038 81.8743 235.063C81.716 235.096 81.5701 235.113 81.4368 235.113ZM85.2819 235.113C84.8653 235.113 84.4903 235.033 84.1569 234.875C83.8319 234.708 83.5736 234.483 83.3819 234.2C83.1903 233.917 83.0944 233.6 83.0944 233.25C83.0944 232.8 83.2069 232.446 83.4319 232.187C83.6653 231.929 84.0444 231.746 84.5694 231.637C85.1028 231.529 85.8278 231.475 86.7444 231.475H87.3069V232.137H86.7569C86.0819 232.137 85.5486 232.171 85.1569 232.237C84.7736 232.296 84.5028 232.4 84.3444 232.55C84.1944 232.7 84.1194 232.912 84.1194 233.187C84.1194 233.529 84.2361 233.808 84.4694 234.025C84.7111 234.242 85.0361 234.35 85.4444 234.35C85.7778 234.35 86.0694 234.271 86.3194 234.112C86.5778 233.954 86.7778 233.737 86.9194 233.462C87.0694 233.187 87.1444 232.871 87.1444 232.512V231.087C87.1444 230.571 87.0403 230.2 86.8319 229.975C86.6236 229.742 86.2819 229.625 85.8069 229.625C85.5153 229.625 85.2236 229.662 84.9319 229.737C84.6403 229.812 84.3319 229.933 84.0069 230.1C83.8903 230.158 83.7903 230.179 83.7069 230.162C83.6236 230.137 83.5569 230.092 83.5069 230.025C83.4569 229.958 83.4278 229.883 83.4194 229.8C83.4111 229.708 83.4278 229.621 83.4694 229.537C83.5194 229.454 83.5944 229.387 83.6944 229.337C84.0611 229.154 84.4236 229.021 84.7819 228.937C85.1403 228.854 85.4819 228.812 85.8069 228.812C86.3319 228.812 86.7653 228.9 87.1069 229.075C87.4486 229.242 87.7028 229.5 87.8694 229.85C88.0361 230.192 88.1194 230.633 88.1194 231.175V234.562C88.1194 234.729 88.0778 234.858 87.9944 234.95C87.9194 235.042 87.8069 235.088 87.6569 235.088C87.4986 235.088 87.3778 235.042 87.2944 234.95C87.2111 234.858 87.1694 234.729 87.1694 234.562V233.587H87.2819C87.2153 233.904 87.0861 234.175 86.8944 234.4C86.7111 234.625 86.4819 234.8 86.2069 234.925C85.9319 235.05 85.6236 235.113 85.2819 235.113ZM92.0479 235.113C91.6729 235.113 91.2937 235.067 90.9104 234.975C90.5354 234.883 90.1854 234.725 89.8604 234.5C89.777 234.442 89.7187 234.375 89.6854 234.3C89.652 234.217 89.6395 234.137 89.6479 234.062C89.6645 233.979 89.6979 233.908 89.7479 233.85C89.8062 233.792 89.8729 233.758 89.9479 233.75C90.0312 233.733 90.1229 233.75 90.2229 233.8C90.5479 234 90.8604 234.142 91.1604 234.225C91.4687 234.3 91.7729 234.337 92.0729 234.337C92.5479 234.337 92.9062 234.25 93.1479 234.075C93.3895 233.9 93.5104 233.662 93.5104 233.362C93.5104 233.129 93.4312 232.946 93.2729 232.812C93.1145 232.671 92.8645 232.562 92.5229 232.487L91.3854 232.237C90.8604 232.129 90.4687 231.942 90.2104 231.675C89.9604 231.408 89.8354 231.062 89.8354 230.637C89.8354 230.262 89.9312 229.942 90.1229 229.675C90.3229 229.4 90.602 229.187 90.9604 229.037C91.3187 228.887 91.7354 228.812 92.2104 228.812C92.577 228.812 92.9229 228.862 93.2479 228.962C93.5812 229.054 93.8812 229.204 94.1479 229.412C94.2312 229.471 94.2854 229.542 94.3104 229.625C94.3437 229.7 94.3479 229.779 94.3229 229.862C94.3062 229.937 94.2687 230.004 94.2104 230.062C94.152 230.112 94.0812 230.142 93.9979 230.15C93.9145 230.158 93.827 230.133 93.7354 230.075C93.4854 229.908 93.2312 229.787 92.9729 229.712C92.7145 229.629 92.4604 229.587 92.2104 229.587C91.7437 229.587 91.3895 229.679 91.1479 229.862C90.9062 230.046 90.7854 230.287 90.7854 230.587C90.7854 230.821 90.8604 231.012 91.0104 231.162C91.1604 231.312 91.3937 231.421 91.7104 231.487L92.8479 231.725C93.3895 231.842 93.7937 232.029 94.0604 232.287C94.3354 232.537 94.4729 232.879 94.4729 233.312C94.4729 233.862 94.252 234.3 93.8104 234.625C93.3687 234.95 92.7812 235.113 92.0479 235.113ZM96.5159 235.088C96.3493 235.088 96.2243 235.042 96.1409 234.95C96.0576 234.858 96.0159 234.729 96.0159 234.562V226.612C96.0159 226.446 96.0576 226.321 96.1409 226.237C96.2243 226.146 96.3493 226.1 96.5159 226.1C96.6743 226.1 96.7993 226.146 96.8909 226.237C96.9826 226.321 97.0284 226.446 97.0284 226.612V231.625H97.0534L99.6159 229.175C99.7326 229.067 99.8326 228.983 99.9159 228.925C100.008 228.867 100.128 228.837 100.278 228.837C100.412 228.837 100.516 228.875 100.591 228.95C100.666 229.017 100.699 229.104 100.691 229.212C100.691 229.312 100.641 229.421 100.541 229.537L97.8159 232.125V231.575L100.778 234.362C100.895 234.479 100.953 234.592 100.953 234.7C100.953 234.808 100.912 234.9 100.828 234.975C100.753 235.05 100.653 235.088 100.528 235.088C100.378 235.088 100.258 235.058 100.166 235C100.074 234.933 99.9618 234.837 99.8284 234.712L97.0534 232.15H97.0284V234.562C97.0284 234.913 96.8576 235.088 96.5159 235.088ZM104.206 235.113C103.831 235.113 103.452 235.067 103.069 234.975C102.694 234.883 102.344 234.725 102.019 234.5C101.935 234.442 101.877 234.375 101.844 234.3C101.81 234.217 101.798 234.137 101.806 234.062C101.823 233.979 101.856 233.908 101.906 233.85C101.964 233.792 102.031 233.758 102.106 233.75C102.189 233.733 102.281 233.75 102.381 233.8C102.706 234 103.019 234.142 103.319 234.225C103.627 234.3 103.931 234.337 104.231 234.337C104.706 234.337 105.064 234.25 105.306 234.075C105.548 233.9 105.669 233.662 105.669 233.362C105.669 233.129 105.589 232.946 105.431 232.812C105.273 232.671 105.023 232.562 104.681 232.487L103.544 232.237C103.019 232.129 102.627 231.942 102.369 231.675C102.119 231.408 101.994 231.062 101.994 230.637C101.994 230.262 102.089 229.942 102.281 229.675C102.481 229.4 102.76 229.187 103.119 229.037C103.477 228.887 103.894 228.812 104.369 228.812C104.735 228.812 105.081 228.862 105.406 228.962C105.739 229.054 106.039 229.204 106.306 229.412C106.389 229.471 106.444 229.542 106.469 229.625C106.502 229.7 106.506 229.779 106.481 229.862C106.464 229.937 106.427 230.004 106.369 230.062C106.31 230.112 106.239 230.142 106.156 230.15C106.073 230.158 105.985 230.133 105.894 230.075C105.644 229.908 105.389 229.787 105.131 229.712C104.873 229.629 104.619 229.587 104.369 229.587C103.902 229.587 103.548 229.679 103.306 229.862C103.064 230.046 102.944 230.287 102.944 230.587C102.944 230.821 103.019 231.012 103.169 231.162C103.319 231.312 103.552 231.421 103.869 231.487L105.006 231.725C105.548 231.842 105.952 232.029 106.219 232.287C106.494 232.537 106.631 232.879 106.631 233.312C106.631 233.862 106.41 234.3 105.969 234.625C105.527 234.95 104.939 235.113 104.206 235.113ZM111.897 235.063C111.73 235.063 111.605 235.017 111.522 234.925C111.438 234.825 111.397 234.687 111.397 234.512V229.4C111.397 229.225 111.438 229.092 111.522 229C111.605 228.908 111.73 228.862 111.897 228.862C112.055 228.862 112.18 228.908 112.272 229C112.363 229.092 112.409 229.225 112.409 229.4V234.512C112.409 234.687 112.363 234.825 112.272 234.925C112.188 235.017 112.063 235.063 111.897 235.063ZM111.897 227.462C111.688 227.462 111.526 227.408 111.409 227.3C111.293 227.183 111.234 227.029 111.234 226.837C111.234 226.637 111.293 226.487 111.409 226.387C111.526 226.279 111.688 226.225 111.897 226.225C112.113 226.225 112.276 226.279 112.384 226.387C112.501 226.487 112.559 226.637 112.559 226.837C112.559 227.029 112.501 227.183 112.384 227.3C112.276 227.408 112.113 227.462 111.897 227.462ZM114.802 235.088C114.635 235.088 114.51 235.042 114.427 234.95C114.344 234.858 114.302 234.729 114.302 234.562V229.35C114.302 229.183 114.344 229.058 114.427 228.975C114.51 228.883 114.631 228.837 114.79 228.837C114.948 228.837 115.069 228.883 115.152 228.975C115.244 229.058 115.29 229.183 115.29 229.35V230.425L115.152 230.275C115.327 229.792 115.61 229.429 116.002 229.187C116.402 228.937 116.86 228.812 117.377 228.812C117.86 228.812 118.26 228.9 118.577 229.075C118.902 229.25 119.144 229.517 119.302 229.875C119.46 230.225 119.54 230.671 119.54 231.212V234.562C119.54 234.729 119.494 234.858 119.402 234.95C119.319 235.042 119.198 235.088 119.04 235.088C118.873 235.088 118.744 235.042 118.652 234.95C118.569 234.858 118.527 234.729 118.527 234.562V231.275C118.527 230.708 118.415 230.296 118.19 230.037C117.973 229.771 117.623 229.637 117.14 229.637C116.581 229.637 116.135 229.812 115.802 230.162C115.477 230.504 115.315 230.962 115.315 231.537V234.562C115.315 234.913 115.144 235.088 114.802 235.088ZM125.979 237.338C125.854 237.338 125.754 237.304 125.679 237.238C125.604 237.171 125.558 237.079 125.542 236.963C125.533 236.854 125.554 236.742 125.604 236.625L126.467 234.687V235.125L124.067 229.55C124.017 229.425 124 229.308 124.017 229.2C124.033 229.092 124.083 229.004 124.167 228.937C124.25 228.871 124.367 228.837 124.517 228.837C124.65 228.837 124.754 228.867 124.829 228.925C124.904 228.983 124.971 229.087 125.029 229.237L127.079 234.262H126.742L128.817 229.237C128.883 229.087 128.954 228.983 129.029 228.925C129.104 228.867 129.213 228.837 129.354 228.837C129.488 228.837 129.588 228.871 129.654 228.937C129.729 229.004 129.771 229.092 129.779 229.2C129.796 229.3 129.779 229.412 129.729 229.537L126.529 236.938C126.463 237.088 126.388 237.192 126.304 237.25C126.229 237.308 126.121 237.338 125.979 237.338ZM133.49 235.113C132.898 235.113 132.385 234.983 131.952 234.725C131.519 234.467 131.181 234.104 130.94 233.637C130.706 233.162 130.59 232.604 130.59 231.962C130.59 231.479 130.656 231.046 130.79 230.662C130.923 230.271 131.119 229.937 131.377 229.662C131.635 229.387 131.94 229.179 132.29 229.037C132.648 228.887 133.048 228.812 133.49 228.812C134.081 228.812 134.594 228.942 135.027 229.2C135.46 229.458 135.794 229.825 136.027 230.3C136.269 230.767 136.39 231.321 136.39 231.962C136.39 232.446 136.323 232.879 136.19 233.262C136.056 233.646 135.86 233.979 135.602 234.262C135.344 234.537 135.035 234.75 134.677 234.9C134.327 235.042 133.931 235.113 133.49 235.113ZM133.49 234.3C133.865 234.3 134.194 234.208 134.477 234.025C134.76 233.842 134.977 233.575 135.127 233.225C135.285 232.875 135.365 232.454 135.365 231.962C135.365 231.204 135.194 230.625 134.852 230.225C134.519 229.825 134.065 229.625 133.49 229.625C133.106 229.625 132.773 229.717 132.49 229.9C132.215 230.075 131.998 230.337 131.84 230.687C131.69 231.029 131.615 231.454 131.615 231.962C131.615 232.712 131.785 233.292 132.127 233.7C132.469 234.1 132.923 234.3 133.49 234.3ZM140.06 235.113C139.569 235.113 139.16 235.025 138.835 234.85C138.519 234.667 138.277 234.396 138.11 234.037C137.952 233.679 137.873 233.233 137.873 232.7V229.35C137.873 229.175 137.915 229.046 137.998 228.962C138.09 228.879 138.215 228.837 138.373 228.837C138.54 228.837 138.665 228.879 138.748 228.962C138.84 229.046 138.885 229.175 138.885 229.35V232.687C138.885 233.221 138.994 233.621 139.21 233.887C139.435 234.146 139.785 234.275 140.26 234.275C140.777 234.275 141.198 234.1 141.523 233.75C141.848 233.4 142.01 232.942 142.01 232.375V229.35C142.01 229.175 142.052 229.046 142.135 228.962C142.227 228.879 142.356 228.837 142.523 228.837C142.681 228.837 142.802 228.879 142.885 228.962C142.977 229.046 143.023 229.175 143.023 229.35V234.562C143.023 234.913 142.86 235.088 142.535 235.088C142.377 235.088 142.252 235.042 142.16 234.95C142.077 234.858 142.035 234.729 142.035 234.562V233.425L142.198 233.6C142.031 234.092 141.756 234.467 141.373 234.725C140.998 234.983 140.56 235.113 140.06 235.113ZM145.43 235.088C145.263 235.088 145.134 235.042 145.042 234.95C144.959 234.858 144.917 234.729 144.917 234.562V229.35C144.917 229.183 144.959 229.058 145.042 228.975C145.126 228.883 145.246 228.837 145.405 228.837C145.563 228.837 145.684 228.883 145.767 228.975C145.859 229.058 145.905 229.183 145.905 229.35V230.362H145.78C145.913 229.871 146.167 229.492 146.542 229.225C146.917 228.958 147.38 228.817 147.93 228.8C148.055 228.792 148.155 228.821 148.23 228.887C148.305 228.946 148.346 229.05 148.355 229.2C148.363 229.342 148.33 229.454 148.255 229.537C148.18 229.621 148.063 229.671 147.905 229.687L147.705 229.712C147.138 229.762 146.701 229.946 146.392 230.262C146.092 230.571 145.942 230.996 145.942 231.537V234.562C145.942 234.729 145.896 234.858 145.805 234.95C145.721 235.042 145.596 235.088 145.43 235.088ZM154.47 235.113C153.87 235.113 153.412 234.929 153.095 234.562C152.778 234.196 152.62 233.671 152.62 232.987V226.612C152.62 226.446 152.662 226.321 152.745 226.237C152.828 226.146 152.953 226.1 153.12 226.1C153.278 226.1 153.403 226.146 153.495 226.237C153.587 226.321 153.632 226.446 153.632 226.612V232.912C153.632 233.362 153.72 233.7 153.895 233.925C154.078 234.142 154.345 234.25 154.695 234.25C154.77 234.25 154.837 234.246 154.895 234.237C154.953 234.229 155.012 234.225 155.07 234.225C155.162 234.217 155.224 234.237 155.257 234.287C155.299 234.337 155.32 234.437 155.32 234.588C155.32 234.737 155.287 234.85 155.22 234.925C155.153 235 155.045 235.05 154.895 235.075C154.828 235.083 154.757 235.092 154.682 235.1C154.607 235.108 154.537 235.113 154.47 235.113ZM156.819 235.063C156.652 235.063 156.527 235.017 156.444 234.925C156.36 234.825 156.319 234.687 156.319 234.512V229.4C156.319 229.225 156.36 229.092 156.444 229C156.527 228.908 156.652 228.862 156.819 228.862C156.977 228.862 157.102 228.908 157.194 229C157.285 229.092 157.331 229.225 157.331 229.4V234.512C157.331 234.687 157.285 234.825 157.194 234.925C157.11 235.017 156.985 235.063 156.819 235.063ZM156.819 227.462C156.61 227.462 156.448 227.408 156.331 227.3C156.214 227.183 156.156 227.029 156.156 226.837C156.156 226.637 156.214 226.487 156.331 226.387C156.448 226.279 156.61 226.225 156.819 226.225C157.035 226.225 157.198 226.279 157.306 226.387C157.423 226.487 157.481 226.637 157.481 226.837C157.481 227.029 157.423 227.183 157.306 227.3C157.198 227.408 157.035 227.462 156.819 227.462ZM161.274 235.113C160.899 235.113 160.52 235.067 160.136 234.975C159.761 234.883 159.411 234.725 159.086 234.5C159.003 234.442 158.945 234.375 158.911 234.3C158.878 234.217 158.866 234.137 158.874 234.062C158.891 233.979 158.924 233.908 158.974 233.85C159.032 233.792 159.099 233.758 159.174 233.75C159.257 233.733 159.349 233.75 159.449 233.8C159.774 234 160.086 234.142 160.386 234.225C160.695 234.3 160.999 234.337 161.299 234.337C161.774 234.337 162.132 234.25 162.374 234.075C162.616 233.9 162.736 233.662 162.736 233.362C162.736 233.129 162.657 232.946 162.499 232.812C162.341 232.671 162.091 232.562 161.749 232.487L160.611 232.237C160.086 232.129 159.695 231.942 159.436 231.675C159.186 231.408 159.061 231.062 159.061 230.637C159.061 230.262 159.157 229.942 159.349 229.675C159.549 229.4 159.828 229.187 160.186 229.037C160.545 228.887 160.961 228.812 161.436 228.812C161.803 228.812 162.149 228.862 162.474 228.962C162.807 229.054 163.107 229.204 163.374 229.412C163.457 229.471 163.511 229.542 163.536 229.625C163.57 229.7 163.574 229.779 163.549 229.862C163.532 229.937 163.495 230.004 163.436 230.062C163.378 230.112 163.307 230.142 163.224 230.15C163.141 230.158 163.053 230.133 162.961 230.075C162.711 229.908 162.457 229.787 162.199 229.712C161.941 229.629 161.686 229.587 161.436 229.587C160.97 229.587 160.616 229.679 160.374 229.862C160.132 230.046 160.011 230.287 160.011 230.587C160.011 230.821 160.086 231.012 160.236 231.162C160.386 231.312 160.62 231.421 160.936 231.487L162.074 231.725C162.616 231.842 163.02 232.029 163.286 232.287C163.561 232.537 163.699 232.879 163.699 233.312C163.699 233.862 163.478 234.3 163.036 234.625C162.595 234.95 162.007 235.113 161.274 235.113ZM167.618 235.113C167.143 235.113 166.743 235.029 166.418 234.862C166.102 234.687 165.864 234.437 165.706 234.112C165.548 233.779 165.468 233.375 165.468 232.9V229.712H164.631C164.489 229.712 164.381 229.679 164.306 229.612C164.231 229.537 164.193 229.437 164.193 229.312C164.193 229.187 164.231 229.092 164.306 229.025C164.381 228.958 164.489 228.925 164.631 228.925H165.468V227.487C165.468 227.321 165.514 227.196 165.606 227.112C165.698 227.021 165.823 226.975 165.981 226.975C166.139 226.975 166.26 227.021 166.343 227.112C166.435 227.196 166.481 227.321 166.481 227.487V228.925H168.056C168.198 228.925 168.306 228.958 168.381 229.025C168.456 229.092 168.493 229.187 168.493 229.312C168.493 229.437 168.456 229.537 168.381 229.612C168.306 229.679 168.198 229.712 168.056 229.712H166.481V232.8C166.481 233.275 166.581 233.637 166.781 233.887C166.981 234.129 167.306 234.25 167.756 234.25C167.914 234.25 168.048 234.233 168.156 234.2C168.273 234.167 168.368 234.15 168.443 234.15C168.518 234.142 168.581 234.167 168.631 234.225C168.681 234.283 168.706 234.383 168.706 234.525C168.706 234.625 168.685 234.717 168.643 234.8C168.61 234.883 168.548 234.942 168.456 234.975C168.356 235.008 168.223 235.038 168.056 235.063C167.898 235.096 167.752 235.113 167.618 235.113ZM170.209 235.05C170.001 235.05 169.834 234.987 169.709 234.862C169.584 234.729 169.522 234.562 169.522 234.362C169.522 234.162 169.584 234 169.709 233.875C169.834 233.742 170.001 233.675 170.209 233.675C170.418 233.675 170.58 233.742 170.697 233.875C170.822 234 170.884 234.162 170.884 234.362C170.884 234.562 170.822 234.729 170.697 234.862C170.58 234.987 170.418 235.05 170.209 235.05ZM175.739 235.088C175.606 235.088 175.497 235.058 175.414 235C175.339 234.933 175.293 234.85 175.276 234.75C175.268 234.642 175.293 234.521 175.351 234.387L178.789 226.562C178.864 226.396 178.951 226.279 179.051 226.212C179.16 226.137 179.276 226.1 179.401 226.1C179.526 226.1 179.639 226.137 179.739 226.212C179.847 226.279 179.935 226.396 180.001 226.562L183.451 234.387C183.518 234.521 183.543 234.642 183.526 234.75C183.518 234.858 183.476 234.942 183.401 235C183.326 235.058 183.222 235.088 183.089 235.088C182.939 235.088 182.818 235.05 182.726 234.975C182.635 234.892 182.56 234.775 182.501 234.625L181.576 232.487L182.076 232.75H176.701L177.214 232.487L176.301 234.625C176.226 234.783 176.147 234.9 176.064 234.975C175.981 235.05 175.872 235.088 175.739 235.088ZM179.389 227.387L177.376 232.125L177.076 231.887H181.701L181.426 232.125L179.414 227.387H179.389ZM187.147 235.113C186.605 235.113 186.13 234.983 185.722 234.725C185.322 234.467 185.009 234.104 184.784 233.637C184.568 233.162 184.459 232.604 184.459 231.962C184.459 231.312 184.568 230.754 184.784 230.287C185.009 229.812 185.322 229.45 185.722 229.2C186.13 228.942 186.605 228.812 187.147 228.812C187.697 228.812 188.168 228.95 188.559 229.225C188.951 229.5 189.213 229.871 189.347 230.337H189.209V226.612C189.209 226.446 189.251 226.321 189.334 226.237C189.426 226.146 189.555 226.1 189.722 226.1C189.88 226.1 190.001 226.146 190.084 226.237C190.176 226.321 190.222 226.446 190.222 226.612V234.562C190.222 234.729 190.18 234.858 190.097 234.95C190.013 235.042 189.888 235.088 189.722 235.088C189.563 235.088 189.438 235.042 189.347 234.95C189.263 234.858 189.222 234.729 189.222 234.562V233.375L189.359 233.55C189.226 234.025 188.959 234.404 188.559 234.687C188.168 234.971 187.697 235.113 187.147 235.113ZM187.359 234.3C187.734 234.3 188.063 234.208 188.347 234.025C188.63 233.842 188.847 233.575 188.997 233.225C189.155 232.875 189.234 232.454 189.234 231.962C189.234 231.204 189.063 230.625 188.722 230.225C188.388 229.825 187.934 229.625 187.359 229.625C186.976 229.625 186.643 229.717 186.359 229.9C186.084 230.075 185.868 230.337 185.709 230.687C185.559 231.029 185.484 231.454 185.484 231.962C185.484 232.712 185.655 233.292 185.997 233.7C186.338 234.1 186.793 234.3 187.359 234.3ZM194.434 235.113C193.893 235.113 193.418 234.983 193.009 234.725C192.609 234.467 192.297 234.104 192.072 233.637C191.855 233.162 191.747 232.604 191.747 231.962C191.747 231.312 191.855 230.754 192.072 230.287C192.297 229.812 192.609 229.45 193.009 229.2C193.418 228.942 193.893 228.812 194.434 228.812C194.984 228.812 195.455 228.95 195.847 229.225C196.239 229.5 196.501 229.871 196.634 230.337H196.497V226.612C196.497 226.446 196.539 226.321 196.622 226.237C196.714 226.146 196.843 226.1 197.009 226.1C197.168 226.1 197.289 226.146 197.372 226.237C197.464 226.321 197.509 226.446 197.509 226.612V234.562C197.509 234.729 197.468 234.858 197.384 234.95C197.301 235.042 197.176 235.088 197.009 235.088C196.851 235.088 196.726 235.042 196.634 234.95C196.551 234.858 196.509 234.729 196.509 234.562V233.375L196.647 233.55C196.514 234.025 196.247 234.404 195.847 234.687C195.455 234.971 194.984 235.113 194.434 235.113ZM194.647 234.3C195.022 234.3 195.351 234.208 195.634 234.025C195.918 233.842 196.134 233.575 196.284 233.225C196.443 232.875 196.522 232.454 196.522 231.962C196.522 231.204 196.351 230.625 196.009 230.225C195.676 229.825 195.222 229.625 194.647 229.625C194.264 229.625 193.93 229.717 193.647 229.9C193.372 230.075 193.155 230.337 192.997 230.687C192.847 231.029 192.772 231.454 192.772 231.962C192.772 232.712 192.943 233.292 193.284 233.7C193.626 234.1 194.08 234.3 194.647 234.3ZM203.132 235.088C202.965 235.088 202.84 235.042 202.757 234.95C202.674 234.858 202.632 234.729 202.632 234.562V229.35C202.632 229.183 202.674 229.058 202.757 228.975C202.84 228.883 202.961 228.837 203.12 228.837C203.278 228.837 203.399 228.883 203.482 228.975C203.574 229.058 203.62 229.183 203.62 229.35V230.425L203.482 230.275C203.657 229.792 203.94 229.429 204.332 229.187C204.732 228.937 205.19 228.812 205.707 228.812C206.19 228.812 206.59 228.9 206.907 229.075C207.232 229.25 207.474 229.517 207.632 229.875C207.79 230.225 207.87 230.671 207.87 231.212V234.562C207.87 234.729 207.824 234.858 207.732 234.95C207.649 235.042 207.528 235.088 207.37 235.088C207.203 235.088 207.074 235.042 206.982 234.95C206.899 234.858 206.857 234.729 206.857 234.562V231.275C206.857 230.708 206.745 230.296 206.52 230.037C206.303 229.771 205.953 229.637 205.47 229.637C204.911 229.637 204.465 229.812 204.132 230.162C203.807 230.504 203.645 230.962 203.645 231.537V234.562C203.645 234.913 203.474 235.088 203.132 235.088ZM212.474 235.113C211.832 235.113 211.278 234.987 210.812 234.737C210.353 234.479 209.995 234.117 209.737 233.65C209.487 233.183 209.362 232.625 209.362 231.975C209.362 231.342 209.487 230.792 209.737 230.325C209.987 229.85 210.328 229.479 210.762 229.212C211.203 228.946 211.712 228.812 212.287 228.812C212.695 228.812 213.062 228.883 213.387 229.025C213.712 229.158 213.987 229.354 214.212 229.612C214.445 229.871 214.62 230.183 214.737 230.55C214.862 230.917 214.924 231.329 214.924 231.788C214.924 231.921 214.887 232.021 214.812 232.087C214.737 232.146 214.628 232.175 214.487 232.175H210.137V231.512H214.249L214.049 231.675C214.049 231.225 213.982 230.846 213.849 230.537C213.716 230.221 213.52 229.979 213.262 229.812C213.012 229.646 212.695 229.562 212.312 229.562C211.887 229.562 211.524 229.662 211.224 229.862C210.932 230.054 210.712 230.325 210.562 230.675C210.412 231.017 210.337 231.417 210.337 231.875V231.95C210.337 232.717 210.52 233.3 210.887 233.7C211.262 234.1 211.791 234.3 212.474 234.3C212.757 234.3 213.037 234.262 213.312 234.187C213.595 234.112 213.87 233.987 214.137 233.812C214.253 233.737 214.357 233.704 214.449 233.712C214.549 233.712 214.628 233.742 214.687 233.8C214.745 233.85 214.782 233.917 214.799 234C214.824 234.075 214.816 234.158 214.774 234.25C214.741 234.342 214.67 234.421 214.562 234.487C214.287 234.687 213.962 234.842 213.587 234.95C213.212 235.058 212.841 235.113 212.474 235.113ZM218.416 235.088C218.275 235.088 218.15 235.05 218.041 234.975C217.933 234.9 217.845 234.779 217.779 234.612L215.916 229.55C215.866 229.408 215.85 229.283 215.866 229.175C215.891 229.067 215.945 228.983 216.029 228.925C216.112 228.867 216.216 228.837 216.341 228.837C216.466 228.837 216.566 228.867 216.641 228.925C216.725 228.983 216.791 229.092 216.841 229.25L218.591 234.25H218.291L220.091 229.25C220.15 229.1 220.22 228.996 220.304 228.937C220.395 228.871 220.512 228.837 220.654 228.837C220.787 228.837 220.9 228.871 220.991 228.937C221.083 229.004 221.154 229.108 221.204 229.25L222.966 234.25H222.679L224.454 229.225C224.512 229.075 224.583 228.975 224.666 228.925C224.75 228.867 224.85 228.837 224.966 228.837C225.1 228.837 225.2 228.871 225.266 228.937C225.341 229.004 225.383 229.092 225.391 229.2C225.4 229.308 225.379 229.425 225.329 229.55L223.466 234.612C223.408 234.771 223.32 234.892 223.204 234.975C223.095 235.05 222.97 235.088 222.829 235.088C222.687 235.088 222.562 235.05 222.454 234.975C222.345 234.892 222.262 234.771 222.204 234.612L220.354 229.537H220.891L219.054 234.612C218.995 234.771 218.912 234.892 218.804 234.975C218.695 235.05 218.566 235.088 218.416 235.088ZM232.487 235.113C232.012 235.113 231.612 235.029 231.287 234.862C230.97 234.687 230.732 234.437 230.574 234.112C230.416 233.779 230.337 233.375 230.337 232.9V229.712H229.499C229.357 229.712 229.249 229.679 229.174 229.612C229.099 229.537 229.062 229.437 229.062 229.312C229.062 229.187 229.099 229.092 229.174 229.025C229.249 228.958 229.357 228.925 229.499 228.925H230.337V227.487C230.337 227.321 230.382 227.196 230.474 227.112C230.566 227.021 230.691 226.975 230.849 226.975C231.007 226.975 231.128 227.021 231.212 227.112C231.303 227.196 231.349 227.321 231.349 227.487V228.925H232.924C233.066 228.925 233.174 228.958 233.249 229.025C233.324 229.092 233.362 229.187 233.362 229.312C233.362 229.437 233.324 229.537 233.249 229.612C233.174 229.679 233.066 229.712 232.924 229.712H231.349V232.8C231.349 233.275 231.449 233.637 231.649 233.887C231.849 234.129 232.174 234.25 232.624 234.25C232.782 234.25 232.916 234.233 233.024 234.2C233.141 234.167 233.237 234.15 233.312 234.15C233.387 234.142 233.449 234.167 233.499 234.225C233.549 234.283 233.574 234.383 233.574 234.525C233.574 234.625 233.553 234.717 233.512 234.8C233.478 234.883 233.416 234.942 233.324 234.975C233.224 235.008 233.091 235.038 232.924 235.063C232.766 235.096 232.62 235.113 232.487 235.113ZM236.332 235.113C235.915 235.113 235.54 235.033 235.207 234.875C234.882 234.708 234.623 234.483 234.432 234.2C234.24 233.917 234.144 233.6 234.144 233.25C234.144 232.8 234.257 232.446 234.482 232.187C234.715 231.929 235.094 231.746 235.619 231.637C236.153 231.529 236.878 231.475 237.794 231.475H238.357V232.137H237.807C237.132 232.137 236.598 232.171 236.207 232.237C235.823 232.296 235.553 232.4 235.394 232.55C235.244 232.7 235.169 232.912 235.169 233.187C235.169 233.529 235.286 233.808 235.519 234.025C235.761 234.242 236.086 234.35 236.494 234.35C236.828 234.35 237.119 234.271 237.369 234.112C237.628 233.954 237.828 233.737 237.969 233.462C238.119 233.187 238.194 232.871 238.194 232.512V231.087C238.194 230.571 238.09 230.2 237.882 229.975C237.673 229.742 237.332 229.625 236.857 229.625C236.565 229.625 236.273 229.662 235.982 229.737C235.69 229.812 235.382 229.933 235.057 230.1C234.94 230.158 234.84 230.179 234.757 230.162C234.673 230.137 234.607 230.092 234.557 230.025C234.507 229.958 234.478 229.883 234.469 229.8C234.461 229.708 234.478 229.621 234.519 229.537C234.569 229.454 234.644 229.387 234.744 229.337C235.111 229.154 235.473 229.021 235.832 228.937C236.19 228.854 236.532 228.812 236.857 228.812C237.382 228.812 237.815 228.9 238.157 229.075C238.498 229.242 238.753 229.5 238.919 229.85C239.086 230.192 239.169 230.633 239.169 231.175V234.562C239.169 234.729 239.128 234.858 239.044 234.95C238.969 235.042 238.857 235.088 238.707 235.088C238.548 235.088 238.428 235.042 238.344 234.95C238.261 234.858 238.219 234.729 238.219 234.562V233.587H238.332C238.265 233.904 238.136 234.175 237.944 234.4C237.761 234.625 237.532 234.8 237.257 234.925C236.982 235.05 236.673 235.113 236.332 235.113ZM243.098 235.113C242.723 235.113 242.343 235.067 241.96 234.975C241.585 234.883 241.235 234.725 240.91 234.5C240.827 234.442 240.768 234.375 240.735 234.3C240.702 234.217 240.689 234.137 240.698 234.062C240.714 233.979 240.748 233.908 240.798 233.85C240.856 233.792 240.923 233.758 240.998 233.75C241.081 233.733 241.173 233.75 241.273 233.8C241.598 234 241.91 234.142 242.21 234.225C242.518 234.3 242.823 234.337 243.123 234.337C243.598 234.337 243.956 234.25 244.198 234.075C244.439 233.9 244.56 233.662 244.56 233.362C244.56 233.129 244.481 232.946 244.323 232.812C244.164 232.671 243.914 232.562 243.573 232.487L242.435 232.237C241.91 232.129 241.518 231.942 241.26 231.675C241.01 231.408 240.885 231.062 240.885 230.637C240.885 230.262 240.981 229.942 241.173 229.675C241.373 229.4 241.652 229.187 242.01 229.037C242.368 228.887 242.785 228.812 243.26 228.812C243.627 228.812 243.973 228.862 244.298 228.962C244.631 229.054 244.931 229.204 245.198 229.412C245.281 229.471 245.335 229.542 245.36 229.625C245.393 229.7 245.398 229.779 245.373 229.862C245.356 229.937 245.318 230.004 245.26 230.062C245.202 230.112 245.131 230.142 245.048 230.15C244.964 230.158 244.877 230.133 244.785 230.075C244.535 229.908 244.281 229.787 244.023 229.712C243.764 229.629 243.51 229.587 243.26 229.587C242.793 229.587 242.439 229.679 242.198 229.862C241.956 230.046 241.835 230.287 241.835 230.587C241.835 230.821 241.91 231.012 242.06 231.162C242.21 231.312 242.443 231.421 242.76 231.487L243.898 231.725C244.439 231.842 244.843 232.029 245.11 232.287C245.385 232.537 245.523 232.879 245.523 233.312C245.523 233.862 245.302 234.3 244.86 234.625C244.418 234.95 243.831 235.113 243.098 235.113ZM247.566 235.088C247.399 235.088 247.274 235.042 247.191 234.95C247.107 234.858 247.066 234.729 247.066 234.562V226.612C247.066 226.446 247.107 226.321 247.191 226.237C247.274 226.146 247.399 226.1 247.566 226.1C247.724 226.1 247.849 226.146 247.941 226.237C248.032 226.321 248.078 226.446 248.078 226.612V231.625H248.103L250.666 229.175C250.782 229.067 250.882 228.983 250.966 228.925C251.057 228.867 251.178 228.837 251.328 228.837C251.462 228.837 251.566 228.875 251.641 228.95C251.716 229.017 251.749 229.104 251.741 229.212C251.741 229.312 251.691 229.421 251.591 229.537L248.866 232.125V231.575L251.828 234.362C251.945 234.479 252.003 234.592 252.003 234.7C252.003 234.808 251.962 234.9 251.878 234.975C251.803 235.05 251.703 235.088 251.578 235.088C251.428 235.088 251.307 235.058 251.216 235C251.124 234.933 251.012 234.837 250.878 234.712L248.103 232.15H248.078V234.562C248.078 234.913 247.907 235.088 247.566 235.088ZM255.256 235.113C254.881 235.113 254.502 235.067 254.118 234.975C253.743 234.883 253.393 234.725 253.068 234.5C252.985 234.442 252.927 234.375 252.893 234.3C252.86 234.217 252.848 234.137 252.856 234.062C252.873 233.979 252.906 233.908 252.956 233.85C253.014 233.792 253.081 233.758 253.156 233.75C253.239 233.733 253.331 233.75 253.431 233.8C253.756 234 254.068 234.142 254.368 234.225C254.677 234.3 254.981 234.337 255.281 234.337C255.756 234.337 256.114 234.25 256.356 234.075C256.598 233.9 256.718 233.662 256.718 233.362C256.718 233.129 256.639 232.946 256.481 232.812C256.323 232.671 256.073 232.562 255.731 232.487L254.593 232.237C254.068 232.129 253.677 231.942 253.418 231.675C253.168 231.408 253.043 231.062 253.043 230.637C253.043 230.262 253.139 229.942 253.331 229.675C253.531 229.4 253.81 229.187 254.168 229.037C254.527 228.887 254.943 228.812 255.418 228.812C255.785 228.812 256.131 228.862 256.456 228.962C256.789 229.054 257.089 229.204 257.356 229.412C257.439 229.471 257.493 229.542 257.518 229.625C257.552 229.7 257.556 229.779 257.531 229.862C257.514 229.937 257.477 230.004 257.418 230.062C257.36 230.112 257.289 230.142 257.206 230.15C257.123 230.158 257.035 230.133 256.943 230.075C256.693 229.908 256.439 229.787 256.181 229.712C255.923 229.629 255.668 229.587 255.418 229.587C254.952 229.587 254.598 229.679 254.356 229.862C254.114 230.046 253.993 230.287 253.993 230.587C253.993 230.821 254.068 231.012 254.218 231.162C254.368 231.312 254.602 231.421 254.918 231.487L256.056 231.725C256.598 231.842 257.002 232.029 257.268 232.287C257.543 232.537 257.681 232.879 257.681 233.312C257.681 233.862 257.46 234.3 257.018 234.625C256.577 234.95 255.989 235.113 255.256 235.113ZM264.884 235.113C264.409 235.113 264.009 235.029 263.684 234.862C263.367 234.687 263.13 234.437 262.972 234.112C262.813 233.779 262.734 233.375 262.734 232.9V229.712H261.897C261.755 229.712 261.647 229.679 261.572 229.612C261.497 229.537 261.459 229.437 261.459 229.312C261.459 229.187 261.497 229.092 261.572 229.025C261.647 228.958 261.755 228.925 261.897 228.925H262.734V227.487C262.734 227.321 262.78 227.196 262.872 227.112C262.963 227.021 263.088 226.975 263.247 226.975C263.405 226.975 263.526 227.021 263.609 227.112C263.701 227.196 263.747 227.321 263.747 227.487V228.925H265.322C265.463 228.925 265.572 228.958 265.647 229.025C265.722 229.092 265.759 229.187 265.759 229.312C265.759 229.437 265.722 229.537 265.647 229.612C265.572 229.679 265.463 229.712 265.322 229.712H263.747V232.8C263.747 233.275 263.847 233.637 264.047 233.887C264.247 234.129 264.572 234.25 265.022 234.25C265.18 234.25 265.313 234.233 265.422 234.2C265.538 234.167 265.634 234.15 265.709 234.15C265.784 234.142 265.847 234.167 265.897 234.225C265.947 234.283 265.972 234.383 265.972 234.525C265.972 234.625 265.951 234.717 265.909 234.8C265.876 234.883 265.813 234.942 265.722 234.975C265.622 235.008 265.488 235.038 265.322 235.063C265.163 235.096 265.017 235.113 264.884 235.113ZM269.281 235.113C268.689 235.113 268.176 234.983 267.743 234.725C267.31 234.467 266.972 234.104 266.731 233.637C266.497 233.162 266.381 232.604 266.381 231.962C266.381 231.479 266.447 231.046 266.581 230.662C266.714 230.271 266.91 229.937 267.168 229.662C267.426 229.387 267.731 229.179 268.081 229.037C268.439 228.887 268.839 228.812 269.281 228.812C269.872 228.812 270.385 228.942 270.818 229.2C271.251 229.458 271.585 229.825 271.818 230.3C272.06 230.767 272.181 231.321 272.181 231.962C272.181 232.446 272.114 232.879 271.981 233.262C271.847 233.646 271.651 233.979 271.393 234.262C271.135 234.537 270.826 234.75 270.468 234.9C270.118 235.042 269.722 235.113 269.281 235.113ZM269.281 234.3C269.656 234.3 269.985 234.208 270.268 234.025C270.551 233.842 270.768 233.575 270.918 233.225C271.076 232.875 271.156 232.454 271.156 231.962C271.156 231.204 270.985 230.625 270.643 230.225C270.31 229.825 269.856 229.625 269.281 229.625C268.897 229.625 268.564 229.717 268.281 229.9C268.006 230.075 267.789 230.337 267.631 230.687C267.481 231.029 267.406 231.454 267.406 231.962C267.406 232.712 267.576 233.292 267.918 233.7C268.26 234.1 268.714 234.3 269.281 234.3ZM59.0034 255.113C58.6284 255.113 58.2493 255.067 57.8659 254.975C57.4909 254.883 57.1409 254.725 56.8159 254.5C56.7326 254.442 56.6743 254.375 56.6409 254.3C56.6076 254.217 56.5951 254.137 56.6034 254.062C56.6201 253.979 56.6534 253.908 56.7034 253.85C56.7618 253.792 56.8284 253.758 56.9034 253.75C56.9868 253.733 57.0784 253.75 57.1784 253.8C57.5034 254 57.8159 254.142 58.1159 254.225C58.4243 254.3 58.7284 254.337 59.0284 254.337C59.5034 254.337 59.8618 254.25 60.1034 254.075C60.3451 253.9 60.4659 253.662 60.4659 253.362C60.4659 253.129 60.3868 252.946 60.2284 252.812C60.0701 252.671 59.8201 252.562 59.4784 252.487L58.3409 252.237C57.8159 252.129 57.4243 251.942 57.1659 251.675C56.9159 251.408 56.7909 251.062 56.7909 250.637C56.7909 250.262 56.8868 249.942 57.0784 249.675C57.2784 249.4 57.5576 249.187 57.9159 249.037C58.2743 248.887 58.6909 248.812 59.1659 248.812C59.5326 248.812 59.8784 248.862 60.2034 248.962C60.5368 249.054 60.8368 249.204 61.1034 249.412C61.1868 249.471 61.2409 249.542 61.2659 249.625C61.2993 249.7 61.3034 249.779 61.2784 249.862C61.2618 249.937 61.2243 250.004 61.1659 250.062C61.1076 250.112 61.0368 250.142 60.9534 250.15C60.8701 250.158 60.7826 250.133 60.6909 250.075C60.4409 249.908 60.1868 249.787 59.9284 249.712C59.6701 249.629 59.4159 249.587 59.1659 249.587C58.6993 249.587 58.3451 249.679 58.1034 249.862C57.8618 250.046 57.7409 250.287 57.7409 250.587C57.7409 250.821 57.8159 251.012 57.9659 251.162C58.1159 251.312 58.3493 251.421 58.6659 251.487L59.8034 251.725C60.3451 251.842 60.7493 252.029 61.0159 252.287C61.2909 252.537 61.4284 252.879 61.4284 253.312C61.4284 253.862 61.2076 254.3 60.7659 254.625C60.3243 254.95 59.7368 255.113 59.0034 255.113ZM65.3479 255.113C64.8729 255.113 64.4729 255.029 64.1479 254.862C63.8313 254.687 63.5938 254.437 63.4354 254.112C63.2771 253.779 63.1979 253.375 63.1979 252.9V249.712H62.3604C62.2188 249.712 62.1104 249.679 62.0354 249.612C61.9604 249.537 61.9229 249.437 61.9229 249.312C61.9229 249.187 61.9604 249.092 62.0354 249.025C62.1104 248.958 62.2188 248.925 62.3604 248.925H63.1979V247.487C63.1979 247.321 63.2438 247.196 63.3354 247.112C63.4271 247.021 63.5521 246.975 63.7104 246.975C63.8688 246.975 63.9896 247.021 64.0729 247.112C64.1646 247.196 64.2104 247.321 64.2104 247.487V248.925H65.7854C65.9271 248.925 66.0354 248.958 66.1104 249.025C66.1854 249.092 66.2229 249.187 66.2229 249.312C66.2229 249.437 66.1854 249.537 66.1104 249.612C66.0354 249.679 65.9271 249.712 65.7854 249.712H64.2104V252.8C64.2104 253.275 64.3104 253.637 64.5104 253.887C64.7104 254.129 65.0354 254.25 65.4854 254.25C65.6438 254.25 65.7771 254.233 65.8854 254.2C66.0021 254.167 66.0979 254.15 66.1729 254.15C66.2479 254.142 66.3104 254.167 66.3604 254.225C66.4104 254.283 66.4354 254.383 66.4354 254.525C66.4354 254.625 66.4146 254.717 66.3729 254.8C66.3396 254.883 66.2771 254.942 66.1854 254.975C66.0854 255.008 65.9521 255.038 65.7854 255.063C65.6271 255.096 65.4813 255.113 65.3479 255.113ZM69.1931 255.113C68.7764 255.113 68.4014 255.033 68.0681 254.875C67.7431 254.708 67.4847 254.483 67.2931 254.2C67.1014 253.917 67.0056 253.6 67.0056 253.25C67.0056 252.8 67.1181 252.446 67.3431 252.187C67.5764 251.929 67.9556 251.746 68.4806 251.637C69.0139 251.529 69.7389 251.475 70.6556 251.475H71.2181V252.137H70.6681C69.9931 252.137 69.4597 252.171 69.0681 252.237C68.6847 252.296 68.4139 252.4 68.2556 252.55C68.1056 252.7 68.0306 252.912 68.0306 253.187C68.0306 253.529 68.1472 253.808 68.3806 254.025C68.6222 254.242 68.9472 254.35 69.3556 254.35C69.6889 254.35 69.9806 254.271 70.2306 254.112C70.4889 253.954 70.6889 253.737 70.8306 253.462C70.9806 253.187 71.0556 252.871 71.0556 252.512V251.087C71.0556 250.571 70.9514 250.2 70.7431 249.975C70.5347 249.742 70.1931 249.625 69.7181 249.625C69.4264 249.625 69.1347 249.662 68.8431 249.737C68.5514 249.812 68.2431 249.933 67.9181 250.1C67.8014 250.158 67.7014 250.179 67.6181 250.162C67.5347 250.137 67.4681 250.092 67.4181 250.025C67.3681 249.958 67.3389 249.883 67.3306 249.8C67.3222 249.708 67.3389 249.621 67.3806 249.537C67.4306 249.454 67.5056 249.387 67.6056 249.337C67.9722 249.154 68.3347 249.021 68.6931 248.937C69.0514 248.854 69.3931 248.812 69.7181 248.812C70.2431 248.812 70.6764 248.9 71.0181 249.075C71.3597 249.242 71.6139 249.5 71.7806 249.85C71.9472 250.192 72.0306 250.633 72.0306 251.175V254.562C72.0306 254.729 71.9889 254.858 71.9056 254.95C71.8306 255.042 71.7181 255.088 71.5681 255.088C71.4097 255.088 71.2889 255.042 71.2056 254.95C71.1222 254.858 71.0806 254.729 71.0806 254.562V253.587H71.1931C71.1264 253.904 70.9972 254.175 70.8056 254.4C70.6222 254.625 70.3931 254.8 70.1181 254.925C69.8431 255.05 69.5347 255.113 69.1931 255.113ZM75.1979 257.338C75.0729 257.338 74.9729 257.304 74.8979 257.238C74.8229 257.171 74.7771 257.079 74.7604 256.963C74.7521 256.854 74.7729 256.742 74.8229 256.625L75.6854 254.687V255.125L73.2854 249.55C73.2354 249.425 73.2188 249.308 73.2354 249.2C73.2521 249.092 73.3021 249.004 73.3854 248.937C73.4688 248.871 73.5854 248.837 73.7354 248.837C73.8688 248.837 73.9729 248.867 74.0479 248.925C74.1229 248.983 74.1896 249.087 74.2479 249.237L76.2979 254.262H75.9604L78.0354 249.237C78.1021 249.087 78.1729 248.983 78.2479 248.925C78.3229 248.867 78.4313 248.837 78.5729 248.837C78.7063 248.837 78.8063 248.871 78.8729 248.937C78.9479 249.004 78.9896 249.092 78.9979 249.2C79.0146 249.3 78.9979 249.412 78.9479 249.537L75.7479 256.938C75.6813 257.088 75.6063 257.192 75.5229 257.25C75.4479 257.308 75.3396 257.338 75.1979 257.338ZM86.0165 255.113C85.4248 255.113 84.9123 254.983 84.479 254.725C84.0457 254.467 83.7082 254.104 83.4665 253.637C83.2332 253.162 83.1165 252.604 83.1165 251.962C83.1165 251.479 83.1832 251.046 83.3165 250.662C83.4498 250.271 83.6457 249.937 83.904 249.662C84.1623 249.387 84.4665 249.179 84.8165 249.037C85.1748 248.887 85.5748 248.812 86.0165 248.812C86.6082 248.812 87.1207 248.942 87.554 249.2C87.9873 249.458 88.3207 249.825 88.554 250.3C88.7957 250.767 88.9165 251.321 88.9165 251.962C88.9165 252.446 88.8498 252.879 88.7165 253.262C88.5832 253.646 88.3873 253.979 88.129 254.262C87.8707 254.537 87.5623 254.75 87.204 254.9C86.854 255.042 86.4582 255.113 86.0165 255.113ZM86.0165 254.3C86.3915 254.3 86.7207 254.208 87.004 254.025C87.2873 253.842 87.504 253.575 87.654 253.225C87.8123 252.875 87.8915 252.454 87.8915 251.962C87.8915 251.204 87.7207 250.625 87.379 250.225C87.0457 249.825 86.5915 249.625 86.0165 249.625C85.6332 249.625 85.2998 249.717 85.0165 249.9C84.7415 250.075 84.5248 250.337 84.3665 250.687C84.2165 251.029 84.1415 251.454 84.1415 251.962C84.1415 252.712 84.3123 253.292 84.654 253.7C84.9957 254.1 85.4498 254.3 86.0165 254.3ZM90.9498 255.088C90.7831 255.088 90.654 255.042 90.5623 254.95C90.479 254.858 90.4373 254.729 90.4373 254.562V249.35C90.4373 249.183 90.479 249.058 90.5623 248.975C90.6456 248.883 90.7665 248.837 90.9248 248.837C91.0831 248.837 91.204 248.883 91.2873 248.975C91.379 249.058 91.4248 249.183 91.4248 249.35V250.362H91.2998C91.4331 249.871 91.6873 249.492 92.0623 249.225C92.4373 248.958 92.8998 248.817 93.4498 248.8C93.5748 248.792 93.6748 248.821 93.7498 248.887C93.8248 248.946 93.8665 249.05 93.8748 249.2C93.8831 249.342 93.8498 249.454 93.7748 249.537C93.6998 249.621 93.5831 249.671 93.4248 249.687L93.2248 249.712C92.6581 249.762 92.2206 249.946 91.9123 250.262C91.6123 250.571 91.4623 250.996 91.4623 251.537V254.562C91.4623 254.729 91.4165 254.858 91.3248 254.95C91.2415 255.042 91.1165 255.088 90.9498 255.088ZM97.5315 257.363C97.0899 257.363 96.6565 257.308 96.2315 257.2C95.8149 257.1 95.4357 256.938 95.094 256.713C94.994 256.654 94.9274 256.583 94.894 256.5C94.869 256.417 94.8649 256.333 94.8815 256.25C94.8982 256.175 94.9357 256.104 94.994 256.038C95.0524 255.979 95.119 255.942 95.194 255.925C95.2774 255.908 95.3607 255.921 95.444 255.963C95.8107 256.188 96.1607 256.342 96.494 256.425C96.8274 256.508 97.1565 256.55 97.4815 256.55C98.0732 256.55 98.519 256.392 98.819 256.075C99.1274 255.758 99.2815 255.3 99.2815 254.7V253.287H99.4065C99.2815 253.771 99.0149 254.154 98.6065 254.437C98.2065 254.721 97.7357 254.862 97.194 254.862C96.6357 254.862 96.1524 254.737 95.744 254.487C95.3357 254.229 95.019 253.871 94.794 253.412C94.5774 252.954 94.469 252.425 94.469 251.825C94.469 251.375 94.5315 250.967 94.6565 250.6C94.7815 250.225 94.9607 249.908 95.194 249.65C95.4357 249.383 95.7232 249.179 96.0565 249.037C96.3982 248.887 96.7774 248.812 97.194 248.812C97.744 248.812 98.219 248.954 98.619 249.237C99.019 249.512 99.2774 249.887 99.394 250.362L99.269 250.512V249.35C99.269 249.183 99.3107 249.058 99.394 248.975C99.4857 248.883 99.6107 248.837 99.769 248.837C99.9357 248.837 100.061 248.883 100.144 248.975C100.227 249.058 100.269 249.183 100.269 249.35V254.562C100.269 255.488 100.036 256.183 99.569 256.65C99.1107 257.125 98.4315 257.363 97.5315 257.363ZM97.3815 254.037C97.7732 254.037 98.1107 253.95 98.394 253.775C98.6774 253.592 98.894 253.333 99.044 253C99.2024 252.667 99.2815 252.275 99.2815 251.825C99.2815 251.15 99.1107 250.617 98.769 250.225C98.4274 249.825 97.9649 249.625 97.3815 249.625C96.9982 249.625 96.6649 249.717 96.3815 249.9C96.0982 250.075 95.8774 250.329 95.719 250.662C95.569 250.987 95.494 251.375 95.494 251.825C95.494 252.5 95.6649 253.037 96.0065 253.438C96.3482 253.837 96.8065 254.037 97.3815 254.037ZM104.081 255.113C103.664 255.113 103.289 255.033 102.956 254.875C102.631 254.708 102.372 254.483 102.181 254.2C101.989 253.917 101.893 253.6 101.893 253.25C101.893 252.8 102.006 252.446 102.231 252.187C102.464 251.929 102.843 251.746 103.368 251.637C103.902 251.529 104.627 251.475 105.543 251.475H106.106V252.137H105.556C104.881 252.137 104.347 252.171 103.956 252.237C103.572 252.296 103.302 252.4 103.143 252.55C102.993 252.7 102.918 252.912 102.918 253.187C102.918 253.529 103.035 253.808 103.268 254.025C103.51 254.242 103.835 254.35 104.243 254.35C104.577 254.35 104.868 254.271 105.118 254.112C105.377 253.954 105.577 253.737 105.718 253.462C105.868 253.187 105.943 252.871 105.943 252.512V251.087C105.943 250.571 105.839 250.2 105.631 249.975C105.422 249.742 105.081 249.625 104.606 249.625C104.314 249.625 104.022 249.662 103.731 249.737C103.439 249.812 103.131 249.933 102.806 250.1C102.689 250.158 102.589 250.179 102.506 250.162C102.422 250.137 102.356 250.092 102.306 250.025C102.256 249.958 102.227 249.883 102.218 249.8C102.21 249.708 102.227 249.621 102.268 249.537C102.318 249.454 102.393 249.387 102.493 249.337C102.86 249.154 103.222 249.021 103.581 248.937C103.939 248.854 104.281 248.812 104.606 248.812C105.131 248.812 105.564 248.9 105.906 249.075C106.247 249.242 106.502 249.5 106.668 249.85C106.835 250.192 106.918 250.633 106.918 251.175V254.562C106.918 254.729 106.877 254.858 106.793 254.95C106.718 255.042 106.606 255.088 106.456 255.088C106.297 255.088 106.177 255.042 106.093 254.95C106.01 254.858 105.968 254.729 105.968 254.562V253.587H106.081C106.014 253.904 105.885 254.175 105.693 254.4C105.51 254.625 105.281 254.8 105.006 254.925C104.731 255.05 104.422 255.113 104.081 255.113ZM109.297 255.088C109.13 255.088 109.005 255.042 108.922 254.95C108.838 254.858 108.797 254.729 108.797 254.562V249.35C108.797 249.183 108.838 249.058 108.922 248.975C109.005 248.883 109.126 248.837 109.284 248.837C109.443 248.837 109.563 248.883 109.647 248.975C109.738 249.058 109.784 249.183 109.784 249.35V250.425L109.647 250.275C109.822 249.792 110.105 249.429 110.497 249.187C110.897 248.937 111.355 248.812 111.872 248.812C112.355 248.812 112.755 248.9 113.072 249.075C113.397 249.25 113.638 249.517 113.797 249.875C113.955 250.225 114.034 250.671 114.034 251.212V254.562C114.034 254.729 113.988 254.858 113.897 254.95C113.813 255.042 113.693 255.088 113.534 255.088C113.368 255.088 113.238 255.042 113.147 254.95C113.063 254.858 113.022 254.729 113.022 254.562V251.275C113.022 250.708 112.909 250.296 112.684 250.037C112.468 249.771 112.118 249.637 111.634 249.637C111.076 249.637 110.63 249.812 110.297 250.162C109.972 250.504 109.809 250.962 109.809 251.537V254.562C109.809 254.913 109.638 255.088 109.297 255.088ZM116.401 255.063C116.235 255.063 116.11 255.017 116.026 254.925C115.943 254.825 115.901 254.687 115.901 254.512V249.4C115.901 249.225 115.943 249.092 116.026 249C116.11 248.908 116.235 248.862 116.401 248.862C116.56 248.862 116.685 248.908 116.776 249C116.868 249.092 116.914 249.225 116.914 249.4V254.512C116.914 254.687 116.868 254.825 116.776 254.925C116.693 255.017 116.568 255.063 116.401 255.063ZM116.401 247.462C116.193 247.462 116.03 247.408 115.914 247.3C115.797 247.183 115.739 247.029 115.739 246.837C115.739 246.637 115.797 246.487 115.914 246.387C116.03 246.279 116.193 246.225 116.401 246.225C116.618 246.225 116.78 246.279 116.889 246.387C117.005 246.487 117.064 246.637 117.064 246.837C117.064 247.029 117.005 247.183 116.889 247.3C116.78 247.408 116.618 247.462 116.401 247.462ZM118.919 255C118.811 255 118.723 254.975 118.656 254.925C118.59 254.875 118.544 254.808 118.519 254.725C118.494 254.642 118.494 254.55 118.519 254.45C118.544 254.35 118.598 254.254 118.681 254.162L122.206 249.45V249.712H118.869C118.736 249.712 118.631 249.679 118.556 249.612C118.49 249.537 118.456 249.437 118.456 249.312C118.456 249.187 118.49 249.092 118.556 249.025C118.631 248.958 118.736 248.925 118.869 248.925H122.706C122.831 248.925 122.931 248.95 123.006 249C123.09 249.05 123.144 249.117 123.169 249.2C123.194 249.275 123.194 249.362 123.169 249.462C123.152 249.554 123.106 249.646 123.031 249.737L119.444 254.5V254.212H122.956C123.231 254.212 123.369 254.342 123.369 254.6C123.369 254.725 123.331 254.825 123.256 254.9C123.19 254.967 123.09 255 122.956 255H118.919ZM127.208 255.113C126.566 255.113 126.012 254.987 125.546 254.737C125.087 254.479 124.729 254.117 124.471 253.65C124.221 253.183 124.096 252.625 124.096 251.975C124.096 251.342 124.221 250.792 124.471 250.325C124.721 249.85 125.062 249.479 125.496 249.212C125.937 248.946 126.446 248.812 127.021 248.812C127.429 248.812 127.796 248.883 128.121 249.025C128.446 249.158 128.721 249.354 128.946 249.612C129.179 249.871 129.354 250.183 129.471 250.55C129.596 250.917 129.658 251.329 129.658 251.788C129.658 251.921 129.621 252.021 129.546 252.087C129.471 252.146 129.362 252.175 129.221 252.175H124.871V251.512H128.983L128.783 251.675C128.783 251.225 128.716 250.846 128.583 250.537C128.45 250.221 128.254 249.979 127.996 249.812C127.746 249.646 127.429 249.562 127.046 249.562C126.621 249.562 126.258 249.662 125.958 249.862C125.666 250.054 125.446 250.325 125.296 250.675C125.146 251.017 125.071 251.417 125.071 251.875V251.95C125.071 252.717 125.254 253.3 125.621 253.7C125.996 254.1 126.525 254.3 127.208 254.3C127.491 254.3 127.771 254.262 128.046 254.187C128.329 254.112 128.604 253.987 128.871 253.812C128.987 253.737 129.091 253.704 129.183 253.712C129.283 253.712 129.362 253.742 129.421 253.8C129.479 253.85 129.516 253.917 129.533 254C129.558 254.075 129.55 254.158 129.508 254.25C129.475 254.342 129.404 254.421 129.296 254.487C129.021 254.687 128.696 254.842 128.321 254.95C127.946 255.058 127.575 255.113 127.208 255.113ZM133.436 255.113C132.894 255.113 132.419 254.983 132.011 254.725C131.611 254.467 131.298 254.104 131.073 253.637C130.857 253.162 130.748 252.604 130.748 251.962C130.748 251.312 130.857 250.754 131.073 250.287C131.298 249.812 131.611 249.45 132.011 249.2C132.419 248.942 132.894 248.812 133.436 248.812C133.986 248.812 134.457 248.95 134.848 249.225C135.24 249.5 135.503 249.871 135.636 250.337H135.498V246.612C135.498 246.446 135.54 246.321 135.623 246.237C135.715 246.146 135.844 246.1 136.011 246.1C136.169 246.1 136.29 246.146 136.373 246.237C136.465 246.321 136.511 246.446 136.511 246.612V254.562C136.511 254.729 136.469 254.858 136.386 254.95C136.303 255.042 136.178 255.088 136.011 255.088C135.853 255.088 135.728 255.042 135.636 254.95C135.553 254.858 135.511 254.729 135.511 254.562V253.375L135.648 253.55C135.515 254.025 135.248 254.404 134.848 254.687C134.457 254.971 133.986 255.113 133.436 255.113ZM133.648 254.3C134.023 254.3 134.353 254.208 134.636 254.025C134.919 253.842 135.136 253.575 135.286 253.225C135.444 252.875 135.523 252.454 135.523 251.962C135.523 251.204 135.353 250.625 135.011 250.225C134.678 249.825 134.223 249.625 133.648 249.625C133.265 249.625 132.932 249.717 132.648 249.9C132.373 250.075 132.157 250.337 131.998 250.687C131.848 251.029 131.773 251.454 131.773 251.962C131.773 252.712 131.944 253.292 132.286 253.7C132.628 254.1 133.082 254.3 133.648 254.3ZM143.546 255.113C143.129 255.113 142.754 255.033 142.421 254.875C142.096 254.708 141.838 254.483 141.646 254.2C141.454 253.917 141.359 253.6 141.359 253.25C141.359 252.8 141.471 252.446 141.696 252.187C141.929 251.929 142.309 251.746 142.834 251.637C143.367 251.529 144.092 251.475 145.009 251.475H145.571V252.137H145.021C144.346 252.137 143.813 252.171 143.421 252.237C143.038 252.296 142.767 252.4 142.609 252.55C142.459 252.7 142.384 252.912 142.384 253.187C142.384 253.529 142.5 253.808 142.734 254.025C142.975 254.242 143.3 254.35 143.709 254.35C144.042 254.35 144.334 254.271 144.584 254.112C144.842 253.954 145.042 253.737 145.184 253.462C145.334 253.187 145.409 252.871 145.409 252.512V251.087C145.409 250.571 145.304 250.2 145.096 249.975C144.888 249.742 144.546 249.625 144.071 249.625C143.779 249.625 143.488 249.662 143.196 249.737C142.904 249.812 142.596 249.933 142.271 250.1C142.154 250.158 142.054 250.179 141.971 250.162C141.888 250.137 141.821 250.092 141.771 250.025C141.721 249.958 141.692 249.883 141.684 249.8C141.675 249.708 141.692 249.621 141.734 249.537C141.784 249.454 141.859 249.387 141.959 249.337C142.325 249.154 142.688 249.021 143.046 248.937C143.404 248.854 143.746 248.812 144.071 248.812C144.596 248.812 145.029 248.9 145.371 249.075C145.713 249.242 145.967 249.5 146.134 249.85C146.3 250.192 146.384 250.633 146.384 251.175V254.562C146.384 254.729 146.342 254.858 146.259 254.95C146.184 255.042 146.071 255.088 145.921 255.088C145.763 255.088 145.642 255.042 145.559 254.95C145.475 254.858 145.434 254.729 145.434 254.562V253.587H145.546C145.479 253.904 145.35 254.175 145.159 254.4C144.975 254.625 144.746 254.8 144.471 254.925C144.196 255.05 143.888 255.113 143.546 255.113ZM148.762 255.088C148.595 255.088 148.47 255.042 148.387 254.95C148.304 254.858 148.262 254.729 148.262 254.562V249.35C148.262 249.183 148.304 249.058 148.387 248.975C148.47 248.883 148.591 248.837 148.75 248.837C148.908 248.837 149.029 248.883 149.112 248.975C149.204 249.058 149.25 249.183 149.25 249.35V250.425L149.112 250.275C149.287 249.792 149.57 249.429 149.962 249.187C150.362 248.937 150.82 248.812 151.337 248.812C151.82 248.812 152.22 248.9 152.537 249.075C152.862 249.25 153.104 249.517 153.262 249.875C153.42 250.225 153.5 250.671 153.5 251.212V254.562C153.5 254.729 153.454 254.858 153.362 254.95C153.279 255.042 153.158 255.088 153 255.088C152.833 255.088 152.704 255.042 152.612 254.95C152.529 254.858 152.487 254.729 152.487 254.562V251.275C152.487 250.708 152.375 250.296 152.15 250.037C151.933 249.771 151.583 249.637 151.1 249.637C150.541 249.637 150.095 249.812 149.762 250.162C149.437 250.504 149.275 250.962 149.275 251.537V254.562C149.275 254.913 149.104 255.088 148.762 255.088ZM157.679 255.113C157.137 255.113 156.662 254.983 156.254 254.725C155.854 254.467 155.542 254.104 155.317 253.637C155.1 253.162 154.992 252.604 154.992 251.962C154.992 251.312 155.1 250.754 155.317 250.287C155.542 249.812 155.854 249.45 156.254 249.2C156.662 248.942 157.137 248.812 157.679 248.812C158.229 248.812 158.7 248.95 159.092 249.225C159.483 249.5 159.746 249.871 159.879 250.337H159.742V246.612C159.742 246.446 159.783 246.321 159.867 246.237C159.958 246.146 160.087 246.1 160.254 246.1C160.412 246.1 160.533 246.146 160.617 246.237C160.708 246.321 160.754 246.446 160.754 246.612V254.562C160.754 254.729 160.712 254.858 160.629 254.95C160.546 255.042 160.421 255.088 160.254 255.088C160.096 255.088 159.971 255.042 159.879 254.95C159.796 254.858 159.754 254.729 159.754 254.562V253.375L159.892 253.55C159.758 254.025 159.492 254.404 159.092 254.687C158.7 254.971 158.229 255.113 157.679 255.113ZM157.892 254.3C158.267 254.3 158.596 254.208 158.879 254.025C159.162 253.842 159.379 253.575 159.529 253.225C159.687 252.875 159.767 252.454 159.767 251.962C159.767 251.204 159.596 250.625 159.254 250.225C158.921 249.825 158.467 249.625 157.892 249.625C157.508 249.625 157.175 249.717 156.892 249.9C156.617 250.075 156.4 250.337 156.242 250.687C156.092 251.029 156.017 251.454 156.017 251.962C156.017 252.712 156.187 253.292 156.529 253.7C156.871 254.1 157.325 254.3 157.892 254.3ZM166.377 257.338C166.21 257.338 166.085 257.292 166.002 257.2C165.918 257.117 165.877 256.992 165.877 256.825V249.35C165.877 249.183 165.918 249.058 166.002 248.975C166.085 248.883 166.206 248.837 166.364 248.837C166.531 248.837 166.656 248.883 166.739 248.975C166.831 249.058 166.877 249.183 166.877 249.35V250.537L166.739 250.362C166.873 249.887 167.135 249.512 167.527 249.237C167.927 248.954 168.402 248.812 168.952 248.812C169.493 248.812 169.964 248.942 170.364 249.2C170.773 249.45 171.085 249.812 171.302 250.287C171.527 250.754 171.639 251.312 171.639 251.962C171.639 252.604 171.527 253.162 171.302 253.637C171.085 254.104 170.777 254.467 170.377 254.725C169.977 254.983 169.502 255.113 168.952 255.113C168.402 255.113 167.931 254.975 167.539 254.7C167.148 254.417 166.881 254.042 166.739 253.575H166.889V256.825C166.889 256.992 166.843 257.117 166.752 257.2C166.66 257.292 166.535 257.338 166.377 257.338ZM168.739 254.3C169.123 254.3 169.452 254.208 169.727 254.025C170.01 253.842 170.227 253.575 170.377 253.225C170.535 252.875 170.614 252.454 170.614 251.962C170.614 251.204 170.443 250.625 170.102 250.225C169.768 249.825 169.314 249.625 168.739 249.625C168.364 249.625 168.035 249.717 167.752 249.9C167.468 250.075 167.248 250.337 167.089 250.687C166.939 251.029 166.864 251.454 166.864 251.962C166.864 252.712 167.035 253.292 167.377 253.7C167.718 254.1 168.173 254.3 168.739 254.3ZM173.677 255.088C173.51 255.088 173.381 255.042 173.289 254.95C173.206 254.858 173.164 254.729 173.164 254.562V249.35C173.164 249.183 173.206 249.058 173.289 248.975C173.373 248.883 173.494 248.837 173.652 248.837C173.81 248.837 173.931 248.883 174.014 248.975C174.106 249.058 174.152 249.183 174.152 249.35V250.362H174.027C174.16 249.871 174.414 249.492 174.789 249.225C175.164 248.958 175.627 248.817 176.177 248.8C176.302 248.792 176.402 248.821 176.477 248.887C176.552 248.946 176.594 249.05 176.602 249.2C176.61 249.342 176.577 249.454 176.502 249.537C176.427 249.621 176.31 249.671 176.152 249.687L175.952 249.712C175.385 249.762 174.948 249.946 174.639 250.262C174.339 250.571 174.189 250.996 174.189 251.537V254.562C174.189 254.729 174.144 254.858 174.052 254.95C173.969 255.042 173.844 255.088 173.677 255.088ZM180.096 255.113C179.504 255.113 178.992 254.983 178.559 254.725C178.125 254.467 177.788 254.104 177.546 253.637C177.313 253.162 177.196 252.604 177.196 251.962C177.196 251.479 177.263 251.046 177.396 250.662C177.529 250.271 177.725 249.937 177.984 249.662C178.242 249.387 178.546 249.179 178.896 249.037C179.254 248.887 179.654 248.812 180.096 248.812C180.688 248.812 181.2 248.942 181.634 249.2C182.067 249.458 182.4 249.825 182.634 250.3C182.875 250.767 182.996 251.321 182.996 251.962C182.996 252.446 182.929 252.879 182.796 253.262C182.663 253.646 182.467 253.979 182.209 254.262C181.95 254.537 181.642 254.75 181.284 254.9C180.934 255.042 180.538 255.113 180.096 255.113ZM180.096 254.3C180.471 254.3 180.8 254.208 181.084 254.025C181.367 253.842 181.584 253.575 181.734 253.225C181.892 252.875 181.971 252.454 181.971 251.962C181.971 251.204 181.8 250.625 181.459 250.225C181.125 249.825 180.671 249.625 180.096 249.625C179.713 249.625 179.379 249.717 179.096 249.9C178.821 250.075 178.604 250.337 178.446 250.687C178.296 251.029 178.221 251.454 178.221 251.962C178.221 252.712 178.392 253.292 178.734 253.7C179.075 254.1 179.529 254.3 180.096 254.3ZM186.829 255.113C186.288 255.113 185.813 254.983 185.404 254.725C185.004 254.467 184.692 254.104 184.467 253.637C184.25 253.162 184.142 252.604 184.142 251.962C184.142 251.312 184.25 250.754 184.467 250.287C184.692 249.812 185.004 249.45 185.404 249.2C185.813 248.942 186.288 248.812 186.829 248.812C187.379 248.812 187.85 248.95 188.242 249.225C188.634 249.5 188.896 249.871 189.029 250.337H188.892V246.612C188.892 246.446 188.934 246.321 189.017 246.237C189.109 246.146 189.238 246.1 189.404 246.1C189.563 246.1 189.684 246.146 189.767 246.237C189.859 246.321 189.904 246.446 189.904 246.612V254.562C189.904 254.729 189.863 254.858 189.779 254.95C189.696 255.042 189.571 255.088 189.404 255.088C189.246 255.088 189.121 255.042 189.029 254.95C188.946 254.858 188.904 254.729 188.904 254.562V253.375L189.042 253.55C188.909 254.025 188.642 254.404 188.242 254.687C187.85 254.971 187.379 255.113 186.829 255.113ZM187.042 254.3C187.417 254.3 187.746 254.208 188.029 254.025C188.313 253.842 188.529 253.575 188.679 253.225C188.838 252.875 188.917 252.454 188.917 251.962C188.917 251.204 188.746 250.625 188.404 250.225C188.071 249.825 187.617 249.625 187.042 249.625C186.659 249.625 186.325 249.717 186.042 249.9C185.767 250.075 185.55 250.337 185.392 250.687C185.242 251.029 185.167 251.454 185.167 251.962C185.167 252.712 185.338 253.292 185.679 253.7C186.021 254.1 186.475 254.3 187.042 254.3ZM193.954 255.113C193.463 255.113 193.054 255.025 192.729 254.85C192.413 254.667 192.171 254.396 192.004 254.037C191.846 253.679 191.767 253.233 191.767 252.7V249.35C191.767 249.175 191.809 249.046 191.892 248.962C191.984 248.879 192.109 248.837 192.267 248.837C192.434 248.837 192.559 248.879 192.642 248.962C192.734 249.046 192.779 249.175 192.779 249.35V252.687C192.779 253.221 192.888 253.621 193.104 253.887C193.329 254.146 193.679 254.275 194.154 254.275C194.671 254.275 195.092 254.1 195.417 253.75C195.742 253.4 195.904 252.942 195.904 252.375V249.35C195.904 249.175 195.946 249.046 196.029 248.962C196.121 248.879 196.25 248.837 196.417 248.837C196.575 248.837 196.696 248.879 196.779 248.962C196.871 249.046 196.917 249.175 196.917 249.35V254.562C196.917 254.913 196.754 255.088 196.429 255.088C196.271 255.088 196.146 255.042 196.054 254.95C195.971 254.858 195.929 254.729 195.929 254.562V253.425L196.092 253.6C195.925 254.092 195.65 254.467 195.267 254.725C194.892 254.983 194.454 255.113 193.954 255.113ZM201.386 255.113C200.778 255.113 200.253 254.979 199.811 254.712C199.37 254.446 199.028 254.075 198.786 253.6C198.553 253.117 198.436 252.558 198.436 251.925C198.436 251.442 198.503 251.008 198.636 250.625C198.77 250.242 198.965 249.917 199.224 249.65C199.482 249.375 199.79 249.167 200.149 249.025C200.515 248.883 200.928 248.812 201.386 248.812C201.686 248.812 201.999 248.858 202.324 248.95C202.649 249.042 202.945 249.2 203.211 249.425C203.295 249.483 203.349 249.554 203.374 249.637C203.399 249.721 203.399 249.804 203.374 249.887C203.349 249.962 203.307 250.029 203.249 250.087C203.19 250.137 203.115 250.167 203.024 250.175C202.94 250.183 202.853 250.154 202.761 250.087C202.545 249.921 202.324 249.804 202.099 249.737C201.874 249.671 201.657 249.637 201.449 249.637C201.124 249.637 200.84 249.692 200.599 249.8C200.357 249.9 200.153 250.046 199.986 250.237C199.82 250.429 199.69 250.667 199.599 250.95C199.515 251.233 199.474 251.562 199.474 251.937C199.474 252.662 199.645 253.237 199.986 253.662C200.328 254.079 200.815 254.287 201.449 254.287C201.657 254.287 201.87 254.254 202.086 254.187C202.311 254.121 202.536 254.004 202.761 253.837C202.853 253.771 202.94 253.742 203.024 253.75C203.107 253.758 203.178 253.792 203.236 253.85C203.295 253.9 203.332 253.967 203.349 254.05C203.374 254.133 203.374 254.217 203.349 254.3C203.324 254.375 203.27 254.442 203.186 254.5C202.92 254.717 202.628 254.875 202.311 254.975C201.995 255.067 201.686 255.113 201.386 255.113ZM207.035 255.113C206.56 255.113 206.16 255.029 205.835 254.862C205.518 254.687 205.281 254.437 205.122 254.112C204.964 253.779 204.885 253.375 204.885 252.9V249.712H204.047C203.906 249.712 203.797 249.679 203.722 249.612C203.647 249.537 203.61 249.437 203.61 249.312C203.61 249.187 203.647 249.092 203.722 249.025C203.797 248.958 203.906 248.925 204.047 248.925H204.885V247.487C204.885 247.321 204.931 247.196 205.022 247.112C205.114 247.021 205.239 246.975 205.397 246.975C205.556 246.975 205.677 247.021 205.76 247.112C205.852 247.196 205.897 247.321 205.897 247.487V248.925H207.472C207.614 248.925 207.722 248.958 207.797 249.025C207.872 249.092 207.91 249.187 207.91 249.312C207.91 249.437 207.872 249.537 207.797 249.612C207.722 249.679 207.614 249.712 207.472 249.712H205.897V252.8C205.897 253.275 205.997 253.637 206.197 253.887C206.397 254.129 206.722 254.25 207.172 254.25C207.331 254.25 207.464 254.233 207.572 254.2C207.689 254.167 207.785 254.15 207.86 254.15C207.935 254.142 207.997 254.167 208.047 254.225C208.097 254.283 208.122 254.383 208.122 254.525C208.122 254.625 208.102 254.717 208.06 254.8C208.027 254.883 207.964 254.942 207.872 254.975C207.772 255.008 207.639 255.038 207.472 255.063C207.314 255.096 207.168 255.113 207.035 255.113ZM209.541 255.063C209.374 255.063 209.249 255.017 209.166 254.925C209.082 254.825 209.041 254.687 209.041 254.512V249.4C209.041 249.225 209.082 249.092 209.166 249C209.249 248.908 209.374 248.862 209.541 248.862C209.699 248.862 209.824 248.908 209.916 249C210.007 249.092 210.053 249.225 210.053 249.4V254.512C210.053 254.687 210.007 254.825 209.916 254.925C209.832 255.017 209.707 255.063 209.541 255.063ZM209.541 247.462C209.332 247.462 209.17 247.408 209.053 247.3C208.937 247.183 208.878 247.029 208.878 246.837C208.878 246.637 208.937 246.487 209.053 246.387C209.17 246.279 209.332 246.225 209.541 246.225C209.757 246.225 209.92 246.279 210.028 246.387C210.145 246.487 210.203 246.637 210.203 246.837C210.203 247.029 210.145 247.183 210.028 247.3C209.92 247.408 209.757 247.462 209.541 247.462ZM214.209 255.088C214.067 255.088 213.942 255.05 213.834 254.975C213.725 254.892 213.634 254.767 213.559 254.6L211.396 249.55C211.338 249.425 211.317 249.308 211.334 249.2C211.35 249.092 211.4 249.004 211.484 248.937C211.567 248.871 211.684 248.837 211.834 248.837C211.967 248.837 212.071 248.867 212.146 248.925C212.221 248.983 212.288 249.087 212.346 249.237L214.396 254.25H214.059L216.146 249.237C216.204 249.087 216.271 248.983 216.346 248.925C216.421 248.867 216.529 248.837 216.671 248.837C216.804 248.837 216.904 248.871 216.971 248.937C217.046 249.004 217.088 249.092 217.096 249.2C217.113 249.3 217.096 249.412 217.046 249.537L214.859 254.6C214.8 254.767 214.713 254.892 214.596 254.975C214.488 255.05 214.359 255.088 214.209 255.088ZM221.031 255.113C220.39 255.113 219.835 254.987 219.369 254.737C218.91 254.479 218.552 254.117 218.294 253.65C218.044 253.183 217.919 252.625 217.919 251.975C217.919 251.342 218.044 250.792 218.294 250.325C218.544 249.85 218.885 249.479 219.319 249.212C219.76 248.946 220.269 248.812 220.844 248.812C221.252 248.812 221.619 248.883 221.944 249.025C222.269 249.158 222.544 249.354 222.769 249.612C223.002 249.871 223.177 250.183 223.294 250.55C223.419 250.917 223.481 251.329 223.481 251.788C223.481 251.921 223.444 252.021 223.369 252.087C223.294 252.146 223.185 252.175 223.044 252.175H218.694V251.512H222.806L222.606 251.675C222.606 251.225 222.54 250.846 222.406 250.537C222.273 250.221 222.077 249.979 221.819 249.812C221.569 249.646 221.252 249.562 220.869 249.562C220.444 249.562 220.081 249.662 219.781 249.862C219.49 250.054 219.269 250.325 219.119 250.675C218.969 251.017 218.894 251.417 218.894 251.875V251.95C218.894 252.717 219.077 253.3 219.444 253.7C219.819 254.1 220.348 254.3 221.031 254.3C221.315 254.3 221.594 254.262 221.869 254.187C222.152 254.112 222.427 253.987 222.694 253.812C222.81 253.737 222.915 253.704 223.006 253.712C223.106 253.712 223.185 253.742 223.244 253.8C223.302 253.85 223.34 253.917 223.356 254C223.381 254.075 223.373 254.158 223.331 254.25C223.298 254.342 223.227 254.421 223.119 254.487C222.844 254.687 222.519 254.842 222.144 254.95C221.769 255.058 221.398 255.113 221.031 255.113Z" fill="#2B2F33" fill-opacity="0.5"/>
<defs>
<clipPath id="clip0_103_370">
<rect width="242" height="155" fill="white" transform="translate(19)"/>
</clipPath>
</defs>
</svg>
